<mxfile host="app.diagrams.net" agent="Mozilla/5.0 (Windows NT 10.0; Win64; x64) AppleWebKit/537.36 (KHTML, like Gecko) Chrome/136.0.0.0 Safari/537.36 Edg/136.0.0.0" version="27.0.3" pages="4">
  <diagram name="все значения" id="rgSUTZbhg42mxv6w6H9g">
    <mxGraphModel dx="695" dy="830" grid="1" gridSize="10" guides="1" tooltips="1" connect="1" arrows="1" fold="1" page="1" pageScale="1" pageWidth="827" pageHeight="1169" math="0" shadow="0">
      <root>
        <mxCell id="0" />
        <mxCell id="1" parent="0" />
        <mxCell id="BXIItD348nbN1tDkHSYt-3" value="" style="group" vertex="1" connectable="0" parent="1">
          <mxGeometry x="170" y="290" width="80" height="80" as="geometry" />
        </mxCell>
        <mxCell id="BXIItD348nbN1tDkHSYt-1" value="Miracle-" style="ellipse;whiteSpace=wrap;html=1;aspect=fixed;" vertex="1" parent="BXIItD348nbN1tDkHSYt-3">
          <mxGeometry width="80" height="80" as="geometry" />
        </mxCell>
        <mxCell id="BXIItD348nbN1tDkHSYt-2" value="1" style="ellipse;whiteSpace=wrap;html=1;aspect=fixed;" vertex="1" parent="BXIItD348nbN1tDkHSYt-3">
          <mxGeometry x="25" width="30" height="30" as="geometry" />
        </mxCell>
        <mxCell id="BXIItD348nbN1tDkHSYt-4" value="" style="group" vertex="1" connectable="0" parent="1">
          <mxGeometry x="260" y="290" width="80" height="80" as="geometry" />
        </mxCell>
        <mxCell id="BXIItD348nbN1tDkHSYt-5" value="Arteezy" style="ellipse;whiteSpace=wrap;html=1;aspect=fixed;" vertex="1" parent="BXIItD348nbN1tDkHSYt-4">
          <mxGeometry width="80" height="80" as="geometry" />
        </mxCell>
        <mxCell id="BXIItD348nbN1tDkHSYt-6" value="2" style="ellipse;whiteSpace=wrap;html=1;aspect=fixed;" vertex="1" parent="BXIItD348nbN1tDkHSYt-4">
          <mxGeometry x="25" width="30" height="30" as="geometry" />
        </mxCell>
        <mxCell id="BXIItD348nbN1tDkHSYt-10" value="" style="group" vertex="1" connectable="0" parent="1">
          <mxGeometry x="170" y="410" width="80" height="80" as="geometry" />
        </mxCell>
        <mxCell id="BXIItD348nbN1tDkHSYt-11" value="Ana" style="ellipse;whiteSpace=wrap;html=1;aspect=fixed;" vertex="1" parent="BXIItD348nbN1tDkHSYt-10">
          <mxGeometry width="80" height="80" as="geometry" />
        </mxCell>
        <mxCell id="BXIItD348nbN1tDkHSYt-12" value="7" style="ellipse;whiteSpace=wrap;html=1;aspect=fixed;" vertex="1" parent="BXIItD348nbN1tDkHSYt-10">
          <mxGeometry x="25" width="30" height="30" as="geometry" />
        </mxCell>
        <mxCell id="BXIItD348nbN1tDkHSYt-13" value="" style="group" vertex="1" connectable="0" parent="1">
          <mxGeometry x="350" y="290" width="80" height="80" as="geometry" />
        </mxCell>
        <mxCell id="BXIItD348nbN1tDkHSYt-14" value="SumaiL" style="ellipse;whiteSpace=wrap;html=1;aspect=fixed;" vertex="1" parent="BXIItD348nbN1tDkHSYt-13">
          <mxGeometry width="80" height="80" as="geometry" />
        </mxCell>
        <mxCell id="BXIItD348nbN1tDkHSYt-15" value="3" style="ellipse;whiteSpace=wrap;html=1;aspect=fixed;" vertex="1" parent="BXIItD348nbN1tDkHSYt-13">
          <mxGeometry x="25" width="30" height="30" as="geometry" />
        </mxCell>
        <mxCell id="BXIItD348nbN1tDkHSYt-16" value="" style="group" vertex="1" connectable="0" parent="1">
          <mxGeometry x="440" y="290" width="80" height="80" as="geometry" />
        </mxCell>
        <mxCell id="BXIItD348nbN1tDkHSYt-17" value="N0tail" style="ellipse;whiteSpace=wrap;html=1;aspect=fixed;" vertex="1" parent="BXIItD348nbN1tDkHSYt-16">
          <mxGeometry width="80" height="80" as="geometry" />
        </mxCell>
        <mxCell id="BXIItD348nbN1tDkHSYt-18" value="4" style="ellipse;whiteSpace=wrap;html=1;aspect=fixed;" vertex="1" parent="BXIItD348nbN1tDkHSYt-16">
          <mxGeometry x="25" width="30" height="30" as="geometry" />
        </mxCell>
        <mxCell id="BXIItD348nbN1tDkHSYt-19" value="" style="group" vertex="1" connectable="0" parent="1">
          <mxGeometry x="260" y="410" width="80" height="80" as="geometry" />
        </mxCell>
        <mxCell id="BXIItD348nbN1tDkHSYt-20" value="Topson" style="ellipse;whiteSpace=wrap;html=1;aspect=fixed;" vertex="1" parent="BXIItD348nbN1tDkHSYt-19">
          <mxGeometry width="80" height="80" as="geometry" />
        </mxCell>
        <mxCell id="BXIItD348nbN1tDkHSYt-21" value="8" style="ellipse;whiteSpace=wrap;html=1;aspect=fixed;" vertex="1" parent="BXIItD348nbN1tDkHSYt-19">
          <mxGeometry x="25" width="30" height="30" as="geometry" />
        </mxCell>
        <mxCell id="BXIItD348nbN1tDkHSYt-22" value="" style="group" vertex="1" connectable="0" parent="1">
          <mxGeometry x="350" y="410" width="80" height="80" as="geometry" />
        </mxCell>
        <mxCell id="BXIItD348nbN1tDkHSYt-23" value="GH" style="ellipse;whiteSpace=wrap;html=1;aspect=fixed;" vertex="1" parent="BXIItD348nbN1tDkHSYt-22">
          <mxGeometry width="80" height="80" as="geometry" />
        </mxCell>
        <mxCell id="BXIItD348nbN1tDkHSYt-24" value="9" style="ellipse;whiteSpace=wrap;html=1;aspect=fixed;" vertex="1" parent="BXIItD348nbN1tDkHSYt-22">
          <mxGeometry x="25" width="30" height="30" as="geometry" />
        </mxCell>
        <mxCell id="BXIItD348nbN1tDkHSYt-25" value="" style="group" vertex="1" connectable="0" parent="1">
          <mxGeometry x="530" y="290" width="170" height="80" as="geometry" />
        </mxCell>
        <mxCell id="BXIItD348nbN1tDkHSYt-26" value="Puppey" style="ellipse;whiteSpace=wrap;html=1;aspect=fixed;" vertex="1" parent="BXIItD348nbN1tDkHSYt-25">
          <mxGeometry width="80" height="80" as="geometry" />
        </mxCell>
        <mxCell id="BXIItD348nbN1tDkHSYt-27" value="5" style="ellipse;whiteSpace=wrap;html=1;aspect=fixed;" vertex="1" parent="BXIItD348nbN1tDkHSYt-25">
          <mxGeometry x="25" width="30" height="30" as="geometry" />
        </mxCell>
        <mxCell id="BXIItD348nbN1tDkHSYt-7" value="" style="group" vertex="1" connectable="0" parent="BXIItD348nbN1tDkHSYt-25">
          <mxGeometry x="90" width="80" height="80" as="geometry" />
        </mxCell>
        <mxCell id="BXIItD348nbN1tDkHSYt-8" value="Dendi" style="ellipse;whiteSpace=wrap;html=1;aspect=fixed;" vertex="1" parent="BXIItD348nbN1tDkHSYt-7">
          <mxGeometry width="80" height="80" as="geometry" />
        </mxCell>
        <mxCell id="BXIItD348nbN1tDkHSYt-9" value="6" style="ellipse;whiteSpace=wrap;html=1;aspect=fixed;" vertex="1" parent="BXIItD348nbN1tDkHSYt-7">
          <mxGeometry x="25" width="30" height="30" as="geometry" />
        </mxCell>
        <mxCell id="BXIItD348nbN1tDkHSYt-28" value="" style="group" vertex="1" connectable="0" parent="1">
          <mxGeometry x="440" y="410" width="80" height="80" as="geometry" />
        </mxCell>
        <mxCell id="BXIItD348nbN1tDkHSYt-29" value="KuroKy" style="ellipse;whiteSpace=wrap;html=1;aspect=fixed;" vertex="1" parent="BXIItD348nbN1tDkHSYt-28">
          <mxGeometry width="80" height="80" as="geometry" />
        </mxCell>
        <mxCell id="BXIItD348nbN1tDkHSYt-30" value="10" style="ellipse;whiteSpace=wrap;html=1;aspect=fixed;" vertex="1" parent="BXIItD348nbN1tDkHSYt-28">
          <mxGeometry x="25" width="30" height="30" as="geometry" />
        </mxCell>
        <mxCell id="BXIItD348nbN1tDkHSYt-32" value="" style="group" vertex="1" connectable="0" parent="1">
          <mxGeometry x="530" y="410" width="80" height="80" as="geometry" />
        </mxCell>
        <mxCell id="BXIItD348nbN1tDkHSYt-33" value="s4" style="ellipse;whiteSpace=wrap;html=1;aspect=fixed;" vertex="1" parent="BXIItD348nbN1tDkHSYt-32">
          <mxGeometry width="80" height="80" as="geometry" />
        </mxCell>
        <mxCell id="BXIItD348nbN1tDkHSYt-34" value="11" style="ellipse;whiteSpace=wrap;html=1;aspect=fixed;" vertex="1" parent="BXIItD348nbN1tDkHSYt-32">
          <mxGeometry x="25" width="30" height="30" as="geometry" />
        </mxCell>
        <mxCell id="BXIItD348nbN1tDkHSYt-35" value="" style="group" vertex="1" connectable="0" parent="1">
          <mxGeometry x="620" y="410" width="80" height="80" as="geometry" />
        </mxCell>
        <mxCell id="BXIItD348nbN1tDkHSYt-36" value="Fear" style="ellipse;whiteSpace=wrap;html=1;aspect=fixed;" vertex="1" parent="BXIItD348nbN1tDkHSYt-35">
          <mxGeometry width="80" height="80" as="geometry" />
        </mxCell>
        <mxCell id="BXIItD348nbN1tDkHSYt-37" value="12" style="ellipse;whiteSpace=wrap;html=1;aspect=fixed;" vertex="1" parent="BXIItD348nbN1tDkHSYt-35">
          <mxGeometry x="25" width="30" height="30" as="geometry" />
        </mxCell>
        <mxCell id="OTi5IyoAIVyBReoas6o5-4" value="" style="group" vertex="1" connectable="0" parent="1">
          <mxGeometry x="160" y="520" width="90" height="70" as="geometry" />
        </mxCell>
        <mxCell id="OTi5IyoAIVyBReoas6o5-1" value="&lt;div&gt;&lt;br&gt;&lt;/div&gt;Anti-Mage" style="rounded=1;whiteSpace=wrap;html=1;" vertex="1" parent="OTi5IyoAIVyBReoas6o5-4">
          <mxGeometry width="90" height="70" as="geometry" />
        </mxCell>
        <mxCell id="OTi5IyoAIVyBReoas6o5-3" value="1" style="rounded=1;whiteSpace=wrap;html=1;" vertex="1" parent="OTi5IyoAIVyBReoas6o5-4">
          <mxGeometry x="33.75" width="22.5" height="26.25" as="geometry" />
        </mxCell>
        <mxCell id="OTi5IyoAIVyBReoas6o5-6" value="" style="group" vertex="1" connectable="0" parent="1">
          <mxGeometry x="260" y="520" width="90" height="70" as="geometry" />
        </mxCell>
        <mxCell id="OTi5IyoAIVyBReoas6o5-7" value="&lt;div&gt;&lt;br&gt;&lt;/div&gt;Crystal Maiden" style="rounded=1;whiteSpace=wrap;html=1;" vertex="1" parent="OTi5IyoAIVyBReoas6o5-6">
          <mxGeometry width="90" height="70" as="geometry" />
        </mxCell>
        <mxCell id="OTi5IyoAIVyBReoas6o5-8" value="2" style="rounded=1;whiteSpace=wrap;html=1;" vertex="1" parent="OTi5IyoAIVyBReoas6o5-6">
          <mxGeometry x="33.75" width="22.5" height="26.25" as="geometry" />
        </mxCell>
        <mxCell id="OTi5IyoAIVyBReoas6o5-9" value="" style="group" vertex="1" connectable="0" parent="1">
          <mxGeometry x="160" y="600" width="90" height="70" as="geometry" />
        </mxCell>
        <mxCell id="OTi5IyoAIVyBReoas6o5-10" value="&lt;div&gt;&lt;br&gt;&lt;/div&gt;Tidehunter" style="rounded=1;whiteSpace=wrap;html=1;" vertex="1" parent="OTi5IyoAIVyBReoas6o5-9">
          <mxGeometry width="90" height="70" as="geometry" />
        </mxCell>
        <mxCell id="OTi5IyoAIVyBReoas6o5-11" value="7" style="rounded=1;whiteSpace=wrap;html=1;" vertex="1" parent="OTi5IyoAIVyBReoas6o5-9">
          <mxGeometry x="33.75" width="22.5" height="26.25" as="geometry" />
        </mxCell>
        <mxCell id="OTi5IyoAIVyBReoas6o5-12" value="" style="group" vertex="1" connectable="0" parent="1">
          <mxGeometry x="260" y="600" width="90" height="70" as="geometry" />
        </mxCell>
        <mxCell id="OTi5IyoAIVyBReoas6o5-13" value="&lt;div&gt;&lt;br&gt;&lt;/div&gt;Storm Spirit" style="rounded=1;whiteSpace=wrap;html=1;" vertex="1" parent="OTi5IyoAIVyBReoas6o5-12">
          <mxGeometry width="90" height="70" as="geometry" />
        </mxCell>
        <mxCell id="OTi5IyoAIVyBReoas6o5-14" value="8" style="rounded=1;whiteSpace=wrap;html=1;" vertex="1" parent="OTi5IyoAIVyBReoas6o5-12">
          <mxGeometry x="33.75" width="22.5" height="26.25" as="geometry" />
        </mxCell>
        <mxCell id="OTi5IyoAIVyBReoas6o5-15" value="" style="group" vertex="1" connectable="0" parent="1">
          <mxGeometry x="360" y="520" width="90" height="70" as="geometry" />
        </mxCell>
        <mxCell id="OTi5IyoAIVyBReoas6o5-16" value="&lt;div&gt;&lt;br&gt;&lt;/div&gt;Pudge" style="rounded=1;whiteSpace=wrap;html=1;" vertex="1" parent="OTi5IyoAIVyBReoas6o5-15">
          <mxGeometry width="90" height="70" as="geometry" />
        </mxCell>
        <mxCell id="OTi5IyoAIVyBReoas6o5-17" value="3" style="rounded=1;whiteSpace=wrap;html=1;" vertex="1" parent="OTi5IyoAIVyBReoas6o5-15">
          <mxGeometry x="33.75" width="22.5" height="26.25" as="geometry" />
        </mxCell>
        <mxCell id="OTi5IyoAIVyBReoas6o5-18" value="" style="group" vertex="1" connectable="0" parent="1">
          <mxGeometry x="460" y="520" width="90" height="70" as="geometry" />
        </mxCell>
        <mxCell id="OTi5IyoAIVyBReoas6o5-19" value="&lt;div&gt;&lt;br&gt;&lt;/div&gt;Invoker" style="rounded=1;whiteSpace=wrap;html=1;" vertex="1" parent="OTi5IyoAIVyBReoas6o5-18">
          <mxGeometry width="90" height="70" as="geometry" />
        </mxCell>
        <mxCell id="OTi5IyoAIVyBReoas6o5-20" value="4" style="rounded=1;whiteSpace=wrap;html=1;" vertex="1" parent="OTi5IyoAIVyBReoas6o5-18">
          <mxGeometry x="33.75" width="22.5" height="26.25" as="geometry" />
        </mxCell>
        <mxCell id="OTi5IyoAIVyBReoas6o5-21" value="" style="group" vertex="1" connectable="0" parent="1">
          <mxGeometry x="360" y="600" width="90" height="70" as="geometry" />
        </mxCell>
        <mxCell id="OTi5IyoAIVyBReoas6o5-22" value="&lt;div&gt;&lt;br&gt;&lt;/div&gt;Drow Ranger" style="rounded=1;whiteSpace=wrap;html=1;" vertex="1" parent="OTi5IyoAIVyBReoas6o5-21">
          <mxGeometry width="90" height="70" as="geometry" />
        </mxCell>
        <mxCell id="OTi5IyoAIVyBReoas6o5-23" value="9" style="rounded=1;whiteSpace=wrap;html=1;" vertex="1" parent="OTi5IyoAIVyBReoas6o5-21">
          <mxGeometry x="33.75" width="22.5" height="26.25" as="geometry" />
        </mxCell>
        <mxCell id="OTi5IyoAIVyBReoas6o5-24" value="" style="group" vertex="1" connectable="0" parent="1">
          <mxGeometry x="460" y="600" width="90" height="70" as="geometry" />
        </mxCell>
        <mxCell id="OTi5IyoAIVyBReoas6o5-25" value="&lt;div&gt;&lt;br&gt;&lt;/div&gt;Earthshaker" style="rounded=1;whiteSpace=wrap;html=1;" vertex="1" parent="OTi5IyoAIVyBReoas6o5-24">
          <mxGeometry width="90" height="70" as="geometry" />
        </mxCell>
        <mxCell id="OTi5IyoAIVyBReoas6o5-26" value="10" style="rounded=1;whiteSpace=wrap;html=1;" vertex="1" parent="OTi5IyoAIVyBReoas6o5-24">
          <mxGeometry x="33.75" width="22.5" height="26.25" as="geometry" />
        </mxCell>
        <mxCell id="OTi5IyoAIVyBReoas6o5-27" value="" style="group" vertex="1" connectable="0" parent="1">
          <mxGeometry x="560" y="520" width="90" height="70" as="geometry" />
        </mxCell>
        <mxCell id="OTi5IyoAIVyBReoas6o5-28" value="&lt;div&gt;&lt;br&gt;&lt;/div&gt;Juggernaut" style="rounded=1;whiteSpace=wrap;html=1;" vertex="1" parent="OTi5IyoAIVyBReoas6o5-27">
          <mxGeometry width="90" height="70" as="geometry" />
        </mxCell>
        <mxCell id="OTi5IyoAIVyBReoas6o5-29" value="5" style="rounded=1;whiteSpace=wrap;html=1;" vertex="1" parent="OTi5IyoAIVyBReoas6o5-27">
          <mxGeometry x="33.75" width="22.5" height="26.25" as="geometry" />
        </mxCell>
        <mxCell id="OTi5IyoAIVyBReoas6o5-30" value="" style="group" vertex="1" connectable="0" parent="1">
          <mxGeometry x="660" y="520" width="90" height="70" as="geometry" />
        </mxCell>
        <mxCell id="OTi5IyoAIVyBReoas6o5-31" value="&lt;div&gt;&lt;br&gt;&lt;/div&gt;Lion" style="rounded=1;whiteSpace=wrap;html=1;" vertex="1" parent="OTi5IyoAIVyBReoas6o5-30">
          <mxGeometry width="90" height="70" as="geometry" />
        </mxCell>
        <mxCell id="OTi5IyoAIVyBReoas6o5-32" value="6" style="rounded=1;whiteSpace=wrap;html=1;" vertex="1" parent="OTi5IyoAIVyBReoas6o5-30">
          <mxGeometry x="33.75" width="22.5" height="26.25" as="geometry" />
        </mxCell>
        <mxCell id="OTi5IyoAIVyBReoas6o5-33" value="" style="group" vertex="1" connectable="0" parent="1">
          <mxGeometry x="560" y="600" width="90" height="70" as="geometry" />
        </mxCell>
        <mxCell id="OTi5IyoAIVyBReoas6o5-34" value="&lt;div&gt;&lt;br&gt;&lt;/div&gt;Axe" style="rounded=1;whiteSpace=wrap;html=1;" vertex="1" parent="OTi5IyoAIVyBReoas6o5-33">
          <mxGeometry width="90" height="70" as="geometry" />
        </mxCell>
        <mxCell id="OTi5IyoAIVyBReoas6o5-35" value="11" style="rounded=1;whiteSpace=wrap;html=1;" vertex="1" parent="OTi5IyoAIVyBReoas6o5-33">
          <mxGeometry x="33.75" width="22.5" height="26.25" as="geometry" />
        </mxCell>
        <mxCell id="OTi5IyoAIVyBReoas6o5-36" value="" style="group" vertex="1" connectable="0" parent="1">
          <mxGeometry x="660" y="600" width="90" height="70" as="geometry" />
        </mxCell>
        <mxCell id="OTi5IyoAIVyBReoas6o5-37" value="&lt;div&gt;&lt;br&gt;&lt;/div&gt;Shadow Fiend" style="rounded=1;whiteSpace=wrap;html=1;" vertex="1" parent="OTi5IyoAIVyBReoas6o5-36">
          <mxGeometry width="90" height="70" as="geometry" />
        </mxCell>
        <mxCell id="OTi5IyoAIVyBReoas6o5-38" value="12" style="rounded=1;whiteSpace=wrap;html=1;" vertex="1" parent="OTi5IyoAIVyBReoas6o5-36">
          <mxGeometry x="33.75" width="22.5" height="26.25" as="geometry" />
        </mxCell>
        <mxCell id="OTi5IyoAIVyBReoas6o5-43" value="" style="group" vertex="1" connectable="0" parent="1">
          <mxGeometry x="140" y="710" width="90" height="90" as="geometry" />
        </mxCell>
        <mxCell id="OTi5IyoAIVyBReoas6o5-42" value="Battle Fury" style="whiteSpace=wrap;html=1;aspect=fixed;" vertex="1" parent="OTi5IyoAIVyBReoas6o5-43">
          <mxGeometry width="90" height="90" as="geometry" />
        </mxCell>
        <mxCell id="OTi5IyoAIVyBReoas6o5-41" value="1" style="whiteSpace=wrap;html=1;aspect=fixed;" vertex="1" parent="OTi5IyoAIVyBReoas6o5-43">
          <mxGeometry x="30.000000000000004" width="30.000000000000004" height="30.000000000000004" as="geometry" />
        </mxCell>
        <mxCell id="OTi5IyoAIVyBReoas6o5-44" value="" style="group" vertex="1" connectable="0" parent="1">
          <mxGeometry x="245" y="710" width="90" height="90" as="geometry" />
        </mxCell>
        <mxCell id="OTi5IyoAIVyBReoas6o5-45" value="Blink Dagger" style="whiteSpace=wrap;html=1;aspect=fixed;" vertex="1" parent="OTi5IyoAIVyBReoas6o5-44">
          <mxGeometry width="90" height="90" as="geometry" />
        </mxCell>
        <mxCell id="OTi5IyoAIVyBReoas6o5-46" value="2" style="whiteSpace=wrap;html=1;aspect=fixed;" vertex="1" parent="OTi5IyoAIVyBReoas6o5-44">
          <mxGeometry x="30" width="30" height="30" as="geometry" />
        </mxCell>
        <mxCell id="OTi5IyoAIVyBReoas6o5-47" value="" style="group" vertex="1" connectable="0" parent="1">
          <mxGeometry x="140" y="820" width="90" height="90" as="geometry" />
        </mxCell>
        <mxCell id="OTi5IyoAIVyBReoas6o5-48" value="Divine Rapier" style="whiteSpace=wrap;html=1;aspect=fixed;" vertex="1" parent="OTi5IyoAIVyBReoas6o5-47">
          <mxGeometry width="90" height="90" as="geometry" />
        </mxCell>
        <mxCell id="OTi5IyoAIVyBReoas6o5-49" value="7" style="whiteSpace=wrap;html=1;aspect=fixed;" vertex="1" parent="OTi5IyoAIVyBReoas6o5-47">
          <mxGeometry x="30.000000000000004" width="30.000000000000004" height="30.000000000000004" as="geometry" />
        </mxCell>
        <mxCell id="OTi5IyoAIVyBReoas6o5-50" value="" style="group" vertex="1" connectable="0" parent="1">
          <mxGeometry x="245" y="820" width="90" height="90" as="geometry" />
        </mxCell>
        <mxCell id="OTi5IyoAIVyBReoas6o5-51" value="Heart of Tarrasque" style="whiteSpace=wrap;html=1;aspect=fixed;" vertex="1" parent="OTi5IyoAIVyBReoas6o5-50">
          <mxGeometry width="90" height="90" as="geometry" />
        </mxCell>
        <mxCell id="OTi5IyoAIVyBReoas6o5-52" value="8" style="whiteSpace=wrap;html=1;aspect=fixed;" vertex="1" parent="OTi5IyoAIVyBReoas6o5-50">
          <mxGeometry x="30" width="30" height="30" as="geometry" />
        </mxCell>
        <mxCell id="OTi5IyoAIVyBReoas6o5-53" value="" style="group" vertex="1" connectable="0" parent="1">
          <mxGeometry x="350" y="710" width="90" height="90" as="geometry" />
        </mxCell>
        <mxCell id="OTi5IyoAIVyBReoas6o5-54" value="Aghanim&#39;&#39;s Scepter" style="whiteSpace=wrap;html=1;aspect=fixed;" vertex="1" parent="OTi5IyoAIVyBReoas6o5-53">
          <mxGeometry width="90" height="90" as="geometry" />
        </mxCell>
        <mxCell id="OTi5IyoAIVyBReoas6o5-55" value="3" style="whiteSpace=wrap;html=1;aspect=fixed;" vertex="1" parent="OTi5IyoAIVyBReoas6o5-53">
          <mxGeometry x="30" width="30" height="30" as="geometry" />
        </mxCell>
        <mxCell id="OTi5IyoAIVyBReoas6o5-56" value="" style="group" vertex="1" connectable="0" parent="1">
          <mxGeometry x="455" y="710" width="90" height="90" as="geometry" />
        </mxCell>
        <mxCell id="OTi5IyoAIVyBReoas6o5-57" value="Black King Bar" style="whiteSpace=wrap;html=1;aspect=fixed;" vertex="1" parent="OTi5IyoAIVyBReoas6o5-56">
          <mxGeometry width="90" height="90" as="geometry" />
        </mxCell>
        <mxCell id="OTi5IyoAIVyBReoas6o5-58" value="4" style="whiteSpace=wrap;html=1;aspect=fixed;" vertex="1" parent="OTi5IyoAIVyBReoas6o5-56">
          <mxGeometry x="30" width="30" height="30" as="geometry" />
        </mxCell>
        <mxCell id="OTi5IyoAIVyBReoas6o5-59" value="" style="group" vertex="1" connectable="0" parent="1">
          <mxGeometry x="350" y="820" width="90" height="90" as="geometry" />
        </mxCell>
        <mxCell id="OTi5IyoAIVyBReoas6o5-60" value="Scythe of Vyse" style="whiteSpace=wrap;html=1;aspect=fixed;" vertex="1" parent="OTi5IyoAIVyBReoas6o5-59">
          <mxGeometry width="90" height="90" as="geometry" />
        </mxCell>
        <mxCell id="OTi5IyoAIVyBReoas6o5-61" value="9" style="whiteSpace=wrap;html=1;aspect=fixed;" vertex="1" parent="OTi5IyoAIVyBReoas6o5-59">
          <mxGeometry x="30" width="30" height="30" as="geometry" />
        </mxCell>
        <mxCell id="OTi5IyoAIVyBReoas6o5-62" value="" style="group" vertex="1" connectable="0" parent="1">
          <mxGeometry x="455" y="820" width="90" height="90" as="geometry" />
        </mxCell>
        <mxCell id="OTi5IyoAIVyBReoas6o5-63" value="Pipe of Insight" style="whiteSpace=wrap;html=1;aspect=fixed;" vertex="1" parent="OTi5IyoAIVyBReoas6o5-62">
          <mxGeometry width="90" height="90" as="geometry" />
        </mxCell>
        <mxCell id="OTi5IyoAIVyBReoas6o5-64" value="10" style="whiteSpace=wrap;html=1;aspect=fixed;" vertex="1" parent="OTi5IyoAIVyBReoas6o5-62">
          <mxGeometry x="30" width="30" height="30" as="geometry" />
        </mxCell>
        <mxCell id="OTi5IyoAIVyBReoas6o5-65" value="" style="group" vertex="1" connectable="0" parent="1">
          <mxGeometry x="560" y="710" width="90" height="90" as="geometry" />
        </mxCell>
        <mxCell id="OTi5IyoAIVyBReoas6o5-66" value="Power Treads" style="whiteSpace=wrap;html=1;aspect=fixed;" vertex="1" parent="OTi5IyoAIVyBReoas6o5-65">
          <mxGeometry width="90" height="90" as="geometry" />
        </mxCell>
        <mxCell id="OTi5IyoAIVyBReoas6o5-67" value="5" style="whiteSpace=wrap;html=1;aspect=fixed;" vertex="1" parent="OTi5IyoAIVyBReoas6o5-65">
          <mxGeometry x="30" width="30" height="30" as="geometry" />
        </mxCell>
        <mxCell id="OTi5IyoAIVyBReoas6o5-68" value="" style="group" vertex="1" connectable="0" parent="1">
          <mxGeometry x="665" y="710" width="90" height="90" as="geometry" />
        </mxCell>
        <mxCell id="OTi5IyoAIVyBReoas6o5-69" value="Hand of Midas" style="whiteSpace=wrap;html=1;aspect=fixed;" vertex="1" parent="OTi5IyoAIVyBReoas6o5-68">
          <mxGeometry width="90" height="90" as="geometry" />
        </mxCell>
        <mxCell id="OTi5IyoAIVyBReoas6o5-70" value="6" style="whiteSpace=wrap;html=1;aspect=fixed;" vertex="1" parent="OTi5IyoAIVyBReoas6o5-68">
          <mxGeometry x="30" width="30" height="30" as="geometry" />
        </mxCell>
        <mxCell id="OTi5IyoAIVyBReoas6o5-71" value="11" style="group" vertex="1" connectable="0" parent="1">
          <mxGeometry x="560" y="820" width="90" height="90" as="geometry" />
        </mxCell>
        <mxCell id="OTi5IyoAIVyBReoas6o5-72" value="Radiance" style="whiteSpace=wrap;html=1;aspect=fixed;" vertex="1" parent="OTi5IyoAIVyBReoas6o5-71">
          <mxGeometry width="90" height="90" as="geometry" />
        </mxCell>
        <mxCell id="OTi5IyoAIVyBReoas6o5-73" value="11" style="whiteSpace=wrap;html=1;aspect=fixed;" vertex="1" parent="OTi5IyoAIVyBReoas6o5-71">
          <mxGeometry x="30" width="30" height="30" as="geometry" />
        </mxCell>
        <mxCell id="OTi5IyoAIVyBReoas6o5-74" value="" style="group" vertex="1" connectable="0" parent="1">
          <mxGeometry x="665" y="820" width="90" height="90" as="geometry" />
        </mxCell>
        <mxCell id="OTi5IyoAIVyBReoas6o5-75" value="Eul&#39;&#39;s Scepter" style="whiteSpace=wrap;html=1;aspect=fixed;" vertex="1" parent="OTi5IyoAIVyBReoas6o5-74">
          <mxGeometry width="90" height="90" as="geometry" />
        </mxCell>
        <mxCell id="OTi5IyoAIVyBReoas6o5-76" value="12" style="whiteSpace=wrap;html=1;aspect=fixed;" vertex="1" parent="OTi5IyoAIVyBReoas6o5-74">
          <mxGeometry x="30" width="30" height="30" as="geometry" />
        </mxCell>
      </root>
    </mxGraphModel>
  </diagram>
  <diagram name="hero-&gt;item" id="C1WsBo9mMqLF4_BqmUiR">
    <mxGraphModel dx="1069" dy="1277" grid="1" gridSize="10" guides="1" tooltips="1" connect="1" arrows="1" fold="1" page="1" pageScale="1" pageWidth="827" pageHeight="1169" math="0" shadow="0">
      <root>
        <mxCell id="TYaofzcXea8dmpiXkx5Z-0" />
        <mxCell id="TYaofzcXea8dmpiXkx5Z-1" parent="TYaofzcXea8dmpiXkx5Z-0" />
        <mxCell id="TYaofzcXea8dmpiXkx5Z-38" value="" style="group" vertex="1" connectable="0" parent="TYaofzcXea8dmpiXkx5Z-1">
          <mxGeometry x="144" y="90" width="90" height="70" as="geometry" />
        </mxCell>
        <mxCell id="TYaofzcXea8dmpiXkx5Z-39" value="&lt;div&gt;&lt;br&gt;&lt;/div&gt;Anti-Mage" style="rounded=1;whiteSpace=wrap;html=1;" vertex="1" parent="TYaofzcXea8dmpiXkx5Z-38">
          <mxGeometry width="90" height="70" as="geometry" />
        </mxCell>
        <mxCell id="TYaofzcXea8dmpiXkx5Z-40" value="1" style="rounded=1;whiteSpace=wrap;html=1;" vertex="1" parent="TYaofzcXea8dmpiXkx5Z-38">
          <mxGeometry x="33.75" width="22.5" height="26.25" as="geometry" />
        </mxCell>
        <mxCell id="TYaofzcXea8dmpiXkx5Z-41" value="" style="group" vertex="1" connectable="0" parent="TYaofzcXea8dmpiXkx5Z-1">
          <mxGeometry x="374" y="90" width="90" height="70" as="geometry" />
        </mxCell>
        <mxCell id="TYaofzcXea8dmpiXkx5Z-42" value="&lt;div&gt;&lt;br&gt;&lt;/div&gt;Crystal Maiden" style="rounded=1;whiteSpace=wrap;html=1;" vertex="1" parent="TYaofzcXea8dmpiXkx5Z-41">
          <mxGeometry width="90" height="70" as="geometry" />
        </mxCell>
        <mxCell id="TYaofzcXea8dmpiXkx5Z-43" value="2" style="rounded=1;whiteSpace=wrap;html=1;" vertex="1" parent="TYaofzcXea8dmpiXkx5Z-41">
          <mxGeometry x="33.75" width="22.5" height="26.25" as="geometry" />
        </mxCell>
        <mxCell id="TYaofzcXea8dmpiXkx5Z-44" value="" style="group" vertex="1" connectable="0" parent="TYaofzcXea8dmpiXkx5Z-1">
          <mxGeometry x="144" y="470" width="90" height="70" as="geometry" />
        </mxCell>
        <mxCell id="TYaofzcXea8dmpiXkx5Z-45" value="&lt;div&gt;&lt;br&gt;&lt;/div&gt;Tidehunter" style="rounded=1;whiteSpace=wrap;html=1;" vertex="1" parent="TYaofzcXea8dmpiXkx5Z-44">
          <mxGeometry width="90" height="70" as="geometry" />
        </mxCell>
        <mxCell id="TYaofzcXea8dmpiXkx5Z-46" value="7" style="rounded=1;whiteSpace=wrap;html=1;" vertex="1" parent="TYaofzcXea8dmpiXkx5Z-44">
          <mxGeometry x="33.75" width="22.5" height="26.25" as="geometry" />
        </mxCell>
        <mxCell id="TYaofzcXea8dmpiXkx5Z-47" value="" style="group" vertex="1" connectable="0" parent="TYaofzcXea8dmpiXkx5Z-1">
          <mxGeometry x="374" y="470" width="90" height="70" as="geometry" />
        </mxCell>
        <mxCell id="TYaofzcXea8dmpiXkx5Z-48" value="&lt;div&gt;&lt;br&gt;&lt;/div&gt;Storm Spirit" style="rounded=1;whiteSpace=wrap;html=1;" vertex="1" parent="TYaofzcXea8dmpiXkx5Z-47">
          <mxGeometry width="90" height="70" as="geometry" />
        </mxCell>
        <mxCell id="TYaofzcXea8dmpiXkx5Z-49" value="8" style="rounded=1;whiteSpace=wrap;html=1;" vertex="1" parent="TYaofzcXea8dmpiXkx5Z-47">
          <mxGeometry x="33.75" width="22.5" height="26.25" as="geometry" />
        </mxCell>
        <mxCell id="TYaofzcXea8dmpiXkx5Z-50" value="" style="group" vertex="1" connectable="0" parent="TYaofzcXea8dmpiXkx5Z-1">
          <mxGeometry x="604" y="90" width="90" height="70" as="geometry" />
        </mxCell>
        <mxCell id="TYaofzcXea8dmpiXkx5Z-51" value="&lt;div&gt;&lt;br&gt;&lt;/div&gt;Pudge" style="rounded=1;whiteSpace=wrap;html=1;" vertex="1" parent="TYaofzcXea8dmpiXkx5Z-50">
          <mxGeometry width="90" height="70" as="geometry" />
        </mxCell>
        <mxCell id="TYaofzcXea8dmpiXkx5Z-52" value="3" style="rounded=1;whiteSpace=wrap;html=1;" vertex="1" parent="TYaofzcXea8dmpiXkx5Z-50">
          <mxGeometry x="33.75" width="22.5" height="26.25" as="geometry" />
        </mxCell>
        <mxCell id="TYaofzcXea8dmpiXkx5Z-53" value="" style="group" vertex="1" connectable="0" parent="TYaofzcXea8dmpiXkx5Z-1">
          <mxGeometry x="144" y="280" width="90" height="70" as="geometry" />
        </mxCell>
        <mxCell id="TYaofzcXea8dmpiXkx5Z-54" value="&lt;div&gt;&lt;br&gt;&lt;/div&gt;Invoker" style="rounded=1;whiteSpace=wrap;html=1;" vertex="1" parent="TYaofzcXea8dmpiXkx5Z-53">
          <mxGeometry width="90" height="70" as="geometry" />
        </mxCell>
        <mxCell id="TYaofzcXea8dmpiXkx5Z-55" value="4" style="rounded=1;whiteSpace=wrap;html=1;" vertex="1" parent="TYaofzcXea8dmpiXkx5Z-53">
          <mxGeometry x="33.75" width="22.5" height="26.25" as="geometry" />
        </mxCell>
        <mxCell id="TYaofzcXea8dmpiXkx5Z-56" value="" style="group" vertex="1" connectable="0" parent="TYaofzcXea8dmpiXkx5Z-1">
          <mxGeometry x="604" y="470" width="90" height="70" as="geometry" />
        </mxCell>
        <mxCell id="TYaofzcXea8dmpiXkx5Z-57" value="&lt;div&gt;&lt;br&gt;&lt;/div&gt;Drow Ranger" style="rounded=1;whiteSpace=wrap;html=1;" vertex="1" parent="TYaofzcXea8dmpiXkx5Z-56">
          <mxGeometry width="90" height="70" as="geometry" />
        </mxCell>
        <mxCell id="TYaofzcXea8dmpiXkx5Z-58" value="9" style="rounded=1;whiteSpace=wrap;html=1;" vertex="1" parent="TYaofzcXea8dmpiXkx5Z-56">
          <mxGeometry x="33.75" width="22.5" height="26.25" as="geometry" />
        </mxCell>
        <mxCell id="TYaofzcXea8dmpiXkx5Z-59" value="" style="group" vertex="1" connectable="0" parent="TYaofzcXea8dmpiXkx5Z-1">
          <mxGeometry x="144" y="660" width="90" height="70" as="geometry" />
        </mxCell>
        <mxCell id="TYaofzcXea8dmpiXkx5Z-60" value="&lt;div&gt;&lt;br&gt;&lt;/div&gt;Earthshaker" style="rounded=1;whiteSpace=wrap;html=1;" vertex="1" parent="TYaofzcXea8dmpiXkx5Z-59">
          <mxGeometry width="90" height="70" as="geometry" />
        </mxCell>
        <mxCell id="TYaofzcXea8dmpiXkx5Z-61" value="10" style="rounded=1;whiteSpace=wrap;html=1;" vertex="1" parent="TYaofzcXea8dmpiXkx5Z-59">
          <mxGeometry x="33.75" width="22.5" height="26.25" as="geometry" />
        </mxCell>
        <mxCell id="TYaofzcXea8dmpiXkx5Z-62" value="" style="group" vertex="1" connectable="0" parent="TYaofzcXea8dmpiXkx5Z-1">
          <mxGeometry x="374" y="280" width="90" height="70" as="geometry" />
        </mxCell>
        <mxCell id="TYaofzcXea8dmpiXkx5Z-63" value="&lt;div&gt;&lt;br&gt;&lt;/div&gt;Juggernaut" style="rounded=1;whiteSpace=wrap;html=1;" vertex="1" parent="TYaofzcXea8dmpiXkx5Z-62">
          <mxGeometry width="90" height="70" as="geometry" />
        </mxCell>
        <mxCell id="TYaofzcXea8dmpiXkx5Z-64" value="5" style="rounded=1;whiteSpace=wrap;html=1;" vertex="1" parent="TYaofzcXea8dmpiXkx5Z-62">
          <mxGeometry x="33.75" width="22.5" height="26.25" as="geometry" />
        </mxCell>
        <mxCell id="TYaofzcXea8dmpiXkx5Z-65" value="" style="group" vertex="1" connectable="0" parent="TYaofzcXea8dmpiXkx5Z-1">
          <mxGeometry x="604" y="280" width="90" height="70" as="geometry" />
        </mxCell>
        <mxCell id="TYaofzcXea8dmpiXkx5Z-66" value="&lt;div&gt;&lt;br&gt;&lt;/div&gt;Lion" style="rounded=1;whiteSpace=wrap;html=1;" vertex="1" parent="TYaofzcXea8dmpiXkx5Z-65">
          <mxGeometry width="90" height="70" as="geometry" />
        </mxCell>
        <mxCell id="TYaofzcXea8dmpiXkx5Z-67" value="6" style="rounded=1;whiteSpace=wrap;html=1;" vertex="1" parent="TYaofzcXea8dmpiXkx5Z-65">
          <mxGeometry x="33.75" width="22.5" height="26.25" as="geometry" />
        </mxCell>
        <mxCell id="TYaofzcXea8dmpiXkx5Z-68" value="" style="group" vertex="1" connectable="0" parent="TYaofzcXea8dmpiXkx5Z-1">
          <mxGeometry x="374" y="660" width="90" height="70" as="geometry" />
        </mxCell>
        <mxCell id="TYaofzcXea8dmpiXkx5Z-69" value="&lt;div&gt;&lt;br&gt;&lt;/div&gt;Axe" style="rounded=1;whiteSpace=wrap;html=1;" vertex="1" parent="TYaofzcXea8dmpiXkx5Z-68">
          <mxGeometry width="90" height="70" as="geometry" />
        </mxCell>
        <mxCell id="TYaofzcXea8dmpiXkx5Z-70" value="11" style="rounded=1;whiteSpace=wrap;html=1;" vertex="1" parent="TYaofzcXea8dmpiXkx5Z-68">
          <mxGeometry x="33.75" width="22.5" height="26.25" as="geometry" />
        </mxCell>
        <mxCell id="TYaofzcXea8dmpiXkx5Z-71" value="" style="group" vertex="1" connectable="0" parent="TYaofzcXea8dmpiXkx5Z-1">
          <mxGeometry x="604" y="660" width="90" height="70" as="geometry" />
        </mxCell>
        <mxCell id="TYaofzcXea8dmpiXkx5Z-72" value="&lt;div&gt;&lt;br&gt;&lt;/div&gt;Shadow Fiend" style="rounded=1;whiteSpace=wrap;html=1;" vertex="1" parent="TYaofzcXea8dmpiXkx5Z-71">
          <mxGeometry width="90" height="70" as="geometry" />
        </mxCell>
        <mxCell id="TYaofzcXea8dmpiXkx5Z-73" value="12" style="rounded=1;whiteSpace=wrap;html=1;" vertex="1" parent="TYaofzcXea8dmpiXkx5Z-71">
          <mxGeometry x="33.75" width="22.5" height="26.25" as="geometry" />
        </mxCell>
        <mxCell id="TYaofzcXea8dmpiXkx5Z-74" value="" style="group" vertex="1" connectable="0" parent="TYaofzcXea8dmpiXkx5Z-1">
          <mxGeometry x="84" y="170" width="90" height="90" as="geometry" />
        </mxCell>
        <mxCell id="TYaofzcXea8dmpiXkx5Z-75" value="Battle Fury" style="whiteSpace=wrap;html=1;aspect=fixed;" vertex="1" parent="TYaofzcXea8dmpiXkx5Z-74">
          <mxGeometry width="90" height="90" as="geometry" />
        </mxCell>
        <mxCell id="TYaofzcXea8dmpiXkx5Z-76" value="1" style="whiteSpace=wrap;html=1;aspect=fixed;" vertex="1" parent="TYaofzcXea8dmpiXkx5Z-74">
          <mxGeometry x="30.000000000000004" width="30.000000000000004" height="30.000000000000004" as="geometry" />
        </mxCell>
        <mxCell id="TYaofzcXea8dmpiXkx5Z-77" value="" style="group" vertex="1" connectable="0" parent="TYaofzcXea8dmpiXkx5Z-1">
          <mxGeometry x="314" y="170" width="90" height="90" as="geometry" />
        </mxCell>
        <mxCell id="TYaofzcXea8dmpiXkx5Z-78" value="Blink Dagger" style="whiteSpace=wrap;html=1;aspect=fixed;" vertex="1" parent="TYaofzcXea8dmpiXkx5Z-77">
          <mxGeometry width="90" height="90" as="geometry" />
        </mxCell>
        <mxCell id="TYaofzcXea8dmpiXkx5Z-79" value="2" style="whiteSpace=wrap;html=1;aspect=fixed;" vertex="1" parent="TYaofzcXea8dmpiXkx5Z-77">
          <mxGeometry x="30" width="30" height="30" as="geometry" />
        </mxCell>
        <mxCell id="TYaofzcXea8dmpiXkx5Z-83" value="" style="group" vertex="1" connectable="0" parent="TYaofzcXea8dmpiXkx5Z-1">
          <mxGeometry x="654" y="170" width="90" height="90" as="geometry" />
        </mxCell>
        <mxCell id="TYaofzcXea8dmpiXkx5Z-84" value="Heart of Tarrasque" style="whiteSpace=wrap;html=1;aspect=fixed;" vertex="1" parent="TYaofzcXea8dmpiXkx5Z-83">
          <mxGeometry width="90" height="90" as="geometry" />
        </mxCell>
        <mxCell id="TYaofzcXea8dmpiXkx5Z-85" value="8" style="whiteSpace=wrap;html=1;aspect=fixed;" vertex="1" parent="TYaofzcXea8dmpiXkx5Z-83">
          <mxGeometry x="30" width="30" height="30" as="geometry" />
        </mxCell>
        <mxCell id="TYaofzcXea8dmpiXkx5Z-86" value="" style="group" vertex="1" connectable="0" parent="TYaofzcXea8dmpiXkx5Z-1">
          <mxGeometry x="84" y="360" width="90" height="90" as="geometry" />
        </mxCell>
        <mxCell id="TYaofzcXea8dmpiXkx5Z-87" value="Aghanim&#39;&#39;s Scepter" style="whiteSpace=wrap;html=1;aspect=fixed;" vertex="1" parent="TYaofzcXea8dmpiXkx5Z-86">
          <mxGeometry width="90" height="90" as="geometry" />
        </mxCell>
        <mxCell id="TYaofzcXea8dmpiXkx5Z-88" value="3" style="whiteSpace=wrap;html=1;aspect=fixed;" vertex="1" parent="TYaofzcXea8dmpiXkx5Z-86">
          <mxGeometry x="30" width="30" height="30" as="geometry" />
        </mxCell>
        <mxCell id="TYaofzcXea8dmpiXkx5Z-89" value="" style="group" vertex="1" connectable="0" parent="TYaofzcXea8dmpiXkx5Z-1">
          <mxGeometry x="544" y="360" width="90" height="90" as="geometry" />
        </mxCell>
        <mxCell id="TYaofzcXea8dmpiXkx5Z-90" value="Black King Bar" style="whiteSpace=wrap;html=1;aspect=fixed;" vertex="1" parent="TYaofzcXea8dmpiXkx5Z-89">
          <mxGeometry width="90" height="90" as="geometry" />
        </mxCell>
        <mxCell id="TYaofzcXea8dmpiXkx5Z-91" value="4" style="whiteSpace=wrap;html=1;aspect=fixed;" vertex="1" parent="TYaofzcXea8dmpiXkx5Z-89">
          <mxGeometry x="30" width="30" height="30" as="geometry" />
        </mxCell>
        <mxCell id="TYaofzcXea8dmpiXkx5Z-95" value="" style="group" vertex="1" connectable="0" parent="TYaofzcXea8dmpiXkx5Z-1">
          <mxGeometry x="644" y="360" width="90" height="90" as="geometry" />
        </mxCell>
        <mxCell id="TYaofzcXea8dmpiXkx5Z-96" value="Pipe of Insight" style="whiteSpace=wrap;html=1;aspect=fixed;" vertex="1" parent="TYaofzcXea8dmpiXkx5Z-95">
          <mxGeometry width="90" height="90" as="geometry" />
        </mxCell>
        <mxCell id="TYaofzcXea8dmpiXkx5Z-97" value="10" style="whiteSpace=wrap;html=1;aspect=fixed;" vertex="1" parent="TYaofzcXea8dmpiXkx5Z-95">
          <mxGeometry x="30" width="30" height="30" as="geometry" />
        </mxCell>
        <mxCell id="TYaofzcXea8dmpiXkx5Z-98" value="" style="group" vertex="1" connectable="0" parent="TYaofzcXea8dmpiXkx5Z-1">
          <mxGeometry x="424" y="360" width="90" height="90" as="geometry" />
        </mxCell>
        <mxCell id="TYaofzcXea8dmpiXkx5Z-99" value="Power Treads" style="whiteSpace=wrap;html=1;aspect=fixed;" vertex="1" parent="TYaofzcXea8dmpiXkx5Z-98">
          <mxGeometry width="90" height="90" as="geometry" />
        </mxCell>
        <mxCell id="TYaofzcXea8dmpiXkx5Z-100" value="5" style="whiteSpace=wrap;html=1;aspect=fixed;" vertex="1" parent="TYaofzcXea8dmpiXkx5Z-98">
          <mxGeometry x="30" width="30" height="30" as="geometry" />
        </mxCell>
        <mxCell id="TYaofzcXea8dmpiXkx5Z-101" value="" style="group" vertex="1" connectable="0" parent="TYaofzcXea8dmpiXkx5Z-1">
          <mxGeometry x="419" y="170" width="90" height="90" as="geometry" />
        </mxCell>
        <mxCell id="TYaofzcXea8dmpiXkx5Z-102" value="Hand of Midas" style="whiteSpace=wrap;html=1;aspect=fixed;" vertex="1" parent="TYaofzcXea8dmpiXkx5Z-101">
          <mxGeometry width="90" height="90" as="geometry" />
        </mxCell>
        <mxCell id="TYaofzcXea8dmpiXkx5Z-103" value="6" style="whiteSpace=wrap;html=1;aspect=fixed;" vertex="1" parent="TYaofzcXea8dmpiXkx5Z-101">
          <mxGeometry x="30" width="30" height="30" as="geometry" />
        </mxCell>
        <mxCell id="TYaofzcXea8dmpiXkx5Z-104" value="11" style="group" vertex="1" connectable="0" parent="TYaofzcXea8dmpiXkx5Z-1">
          <mxGeometry x="194" y="170" width="90" height="90" as="geometry" />
        </mxCell>
        <mxCell id="TYaofzcXea8dmpiXkx5Z-105" value="Radiance" style="whiteSpace=wrap;html=1;aspect=fixed;" vertex="1" parent="TYaofzcXea8dmpiXkx5Z-104">
          <mxGeometry width="90" height="90" as="geometry" />
        </mxCell>
        <mxCell id="TYaofzcXea8dmpiXkx5Z-106" value="11" style="whiteSpace=wrap;html=1;aspect=fixed;" vertex="1" parent="TYaofzcXea8dmpiXkx5Z-104">
          <mxGeometry x="30" width="30" height="30" as="geometry" />
        </mxCell>
        <mxCell id="TYaofzcXea8dmpiXkx5Z-107" value="" style="group" vertex="1" connectable="0" parent="TYaofzcXea8dmpiXkx5Z-1">
          <mxGeometry x="194" y="360" width="90" height="90" as="geometry" />
        </mxCell>
        <mxCell id="TYaofzcXea8dmpiXkx5Z-108" value="Eul&#39;&#39;s Scepter" style="whiteSpace=wrap;html=1;aspect=fixed;" vertex="1" parent="TYaofzcXea8dmpiXkx5Z-107">
          <mxGeometry width="90" height="90" as="geometry" />
        </mxCell>
        <mxCell id="TYaofzcXea8dmpiXkx5Z-109" value="12" style="whiteSpace=wrap;html=1;aspect=fixed;" vertex="1" parent="TYaofzcXea8dmpiXkx5Z-107">
          <mxGeometry x="30" width="30" height="30" as="geometry" />
        </mxCell>
        <mxCell id="WSJjHXX28u-gC4zLqkbt-0" value="" style="group" vertex="1" connectable="0" parent="TYaofzcXea8dmpiXkx5Z-1">
          <mxGeometry x="544" y="170" width="90" height="90" as="geometry" />
        </mxCell>
        <mxCell id="WSJjHXX28u-gC4zLqkbt-1" value="Blink Dagger" style="whiteSpace=wrap;html=1;aspect=fixed;" vertex="1" parent="WSJjHXX28u-gC4zLqkbt-0">
          <mxGeometry width="90" height="90" as="geometry" />
        </mxCell>
        <mxCell id="WSJjHXX28u-gC4zLqkbt-2" value="2" style="whiteSpace=wrap;html=1;aspect=fixed;" vertex="1" parent="WSJjHXX28u-gC4zLqkbt-0">
          <mxGeometry x="30" width="30" height="30" as="geometry" />
        </mxCell>
        <mxCell id="WSJjHXX28u-gC4zLqkbt-3" value="" style="group" vertex="1" connectable="0" parent="TYaofzcXea8dmpiXkx5Z-1">
          <mxGeometry x="314" y="360" width="90" height="90" as="geometry" />
        </mxCell>
        <mxCell id="WSJjHXX28u-gC4zLqkbt-4" value="Battle Fury" style="whiteSpace=wrap;html=1;aspect=fixed;" vertex="1" parent="WSJjHXX28u-gC4zLqkbt-3">
          <mxGeometry width="90" height="90" as="geometry" />
        </mxCell>
        <mxCell id="WSJjHXX28u-gC4zLqkbt-5" value="1" style="whiteSpace=wrap;html=1;aspect=fixed;" vertex="1" parent="WSJjHXX28u-gC4zLqkbt-3">
          <mxGeometry x="30.000000000000004" width="30.000000000000004" height="30.000000000000004" as="geometry" />
        </mxCell>
        <mxCell id="WSJjHXX28u-gC4zLqkbt-6" value="" style="group" vertex="1" connectable="0" parent="TYaofzcXea8dmpiXkx5Z-1">
          <mxGeometry x="84" y="550" width="90" height="90" as="geometry" />
        </mxCell>
        <mxCell id="WSJjHXX28u-gC4zLqkbt-7" value="Black King Bar" style="whiteSpace=wrap;html=1;aspect=fixed;" vertex="1" parent="WSJjHXX28u-gC4zLqkbt-6">
          <mxGeometry width="90" height="90" as="geometry" />
        </mxCell>
        <mxCell id="WSJjHXX28u-gC4zLqkbt-8" value="4" style="whiteSpace=wrap;html=1;aspect=fixed;" vertex="1" parent="WSJjHXX28u-gC4zLqkbt-6">
          <mxGeometry x="30" width="30" height="30" as="geometry" />
        </mxCell>
        <mxCell id="WSJjHXX28u-gC4zLqkbt-9" value="" style="group" vertex="1" connectable="0" parent="TYaofzcXea8dmpiXkx5Z-1">
          <mxGeometry x="194" y="550" width="90" height="90" as="geometry" />
        </mxCell>
        <mxCell id="WSJjHXX28u-gC4zLqkbt-10" value="Scythe of Vyse" style="whiteSpace=wrap;html=1;aspect=fixed;" vertex="1" parent="WSJjHXX28u-gC4zLqkbt-9">
          <mxGeometry width="90" height="90" as="geometry" />
        </mxCell>
        <mxCell id="WSJjHXX28u-gC4zLqkbt-11" value="9" style="whiteSpace=wrap;html=1;aspect=fixed;" vertex="1" parent="WSJjHXX28u-gC4zLqkbt-9">
          <mxGeometry x="30" width="30" height="30" as="geometry" />
        </mxCell>
        <mxCell id="WSJjHXX28u-gC4zLqkbt-21" value="" style="group" vertex="1" connectable="0" parent="TYaofzcXea8dmpiXkx5Z-1">
          <mxGeometry x="194" y="740" width="90" height="90" as="geometry" />
        </mxCell>
        <mxCell id="WSJjHXX28u-gC4zLqkbt-22" value="Aghanim&#39;&#39;s Scepter" style="whiteSpace=wrap;html=1;aspect=fixed;" vertex="1" parent="WSJjHXX28u-gC4zLqkbt-21">
          <mxGeometry width="90" height="90" as="geometry" />
        </mxCell>
        <mxCell id="WSJjHXX28u-gC4zLqkbt-23" value="3" style="whiteSpace=wrap;html=1;aspect=fixed;" vertex="1" parent="WSJjHXX28u-gC4zLqkbt-21">
          <mxGeometry x="30" width="30" height="30" as="geometry" />
        </mxCell>
        <mxCell id="WSJjHXX28u-gC4zLqkbt-24" value="" style="group" vertex="1" connectable="0" parent="TYaofzcXea8dmpiXkx5Z-1">
          <mxGeometry x="84" y="740" width="90" height="90" as="geometry" />
        </mxCell>
        <mxCell id="WSJjHXX28u-gC4zLqkbt-25" value="Blink Dagger" style="whiteSpace=wrap;html=1;aspect=fixed;" vertex="1" parent="WSJjHXX28u-gC4zLqkbt-24">
          <mxGeometry width="90" height="90" as="geometry" />
        </mxCell>
        <mxCell id="WSJjHXX28u-gC4zLqkbt-26" value="2" style="whiteSpace=wrap;html=1;aspect=fixed;" vertex="1" parent="WSJjHXX28u-gC4zLqkbt-24">
          <mxGeometry x="30" width="30" height="30" as="geometry" />
        </mxCell>
        <mxCell id="WSJjHXX28u-gC4zLqkbt-27" value="" style="group" vertex="1" connectable="0" parent="TYaofzcXea8dmpiXkx5Z-1">
          <mxGeometry x="424" y="740" width="90" height="90" as="geometry" />
        </mxCell>
        <mxCell id="WSJjHXX28u-gC4zLqkbt-28" value="Scythe of Vyse" style="whiteSpace=wrap;html=1;aspect=fixed;" vertex="1" parent="WSJjHXX28u-gC4zLqkbt-27">
          <mxGeometry width="90" height="90" as="geometry" />
        </mxCell>
        <mxCell id="WSJjHXX28u-gC4zLqkbt-29" value="9" style="whiteSpace=wrap;html=1;aspect=fixed;" vertex="1" parent="WSJjHXX28u-gC4zLqkbt-27">
          <mxGeometry x="30" width="30" height="30" as="geometry" />
        </mxCell>
        <mxCell id="WSJjHXX28u-gC4zLqkbt-30" value="" style="group" vertex="1" connectable="0" parent="TYaofzcXea8dmpiXkx5Z-1">
          <mxGeometry x="314" y="740" width="90" height="90" as="geometry" />
        </mxCell>
        <mxCell id="WSJjHXX28u-gC4zLqkbt-31" value="Battle Fury" style="whiteSpace=wrap;html=1;aspect=fixed;" vertex="1" parent="WSJjHXX28u-gC4zLqkbt-30">
          <mxGeometry width="90" height="90" as="geometry" />
        </mxCell>
        <mxCell id="WSJjHXX28u-gC4zLqkbt-32" value="1" style="whiteSpace=wrap;html=1;aspect=fixed;" vertex="1" parent="WSJjHXX28u-gC4zLqkbt-30">
          <mxGeometry x="30.000000000000004" width="30.000000000000004" height="30.000000000000004" as="geometry" />
        </mxCell>
        <mxCell id="WSJjHXX28u-gC4zLqkbt-35" value="" style="group" vertex="1" connectable="0" parent="TYaofzcXea8dmpiXkx5Z-1">
          <mxGeometry x="544" y="740" width="90" height="90" as="geometry" />
        </mxCell>
        <mxCell id="WSJjHXX28u-gC4zLqkbt-36" value="Aghanim&#39;&#39;s Scepter" style="whiteSpace=wrap;html=1;aspect=fixed;" vertex="1" parent="WSJjHXX28u-gC4zLqkbt-35">
          <mxGeometry width="90" height="90" as="geometry" />
        </mxCell>
        <mxCell id="WSJjHXX28u-gC4zLqkbt-37" value="3" style="whiteSpace=wrap;html=1;aspect=fixed;" vertex="1" parent="WSJjHXX28u-gC4zLqkbt-35">
          <mxGeometry x="30" width="30" height="30" as="geometry" />
        </mxCell>
        <mxCell id="WSJjHXX28u-gC4zLqkbt-38" value="" style="group" vertex="1" connectable="0" parent="TYaofzcXea8dmpiXkx5Z-1">
          <mxGeometry x="654" y="740" width="90" height="90" as="geometry" />
        </mxCell>
        <mxCell id="WSJjHXX28u-gC4zLqkbt-39" value="Black King Bar" style="whiteSpace=wrap;html=1;aspect=fixed;" vertex="1" parent="WSJjHXX28u-gC4zLqkbt-38">
          <mxGeometry width="90" height="90" as="geometry" />
        </mxCell>
        <mxCell id="WSJjHXX28u-gC4zLqkbt-40" value="4" style="whiteSpace=wrap;html=1;aspect=fixed;" vertex="1" parent="WSJjHXX28u-gC4zLqkbt-38">
          <mxGeometry x="30" width="30" height="30" as="geometry" />
        </mxCell>
        <mxCell id="WSJjHXX28u-gC4zLqkbt-41" value="" style="group" vertex="1" connectable="0" parent="TYaofzcXea8dmpiXkx5Z-1">
          <mxGeometry x="654" y="550" width="90" height="90" as="geometry" />
        </mxCell>
        <mxCell id="WSJjHXX28u-gC4zLqkbt-42" value="Divine Rapier" style="whiteSpace=wrap;html=1;aspect=fixed;" vertex="1" parent="WSJjHXX28u-gC4zLqkbt-41">
          <mxGeometry width="90" height="90" as="geometry" />
        </mxCell>
        <mxCell id="WSJjHXX28u-gC4zLqkbt-43" value="7" style="whiteSpace=wrap;html=1;aspect=fixed;" vertex="1" parent="WSJjHXX28u-gC4zLqkbt-41">
          <mxGeometry x="30.000000000000004" width="30.000000000000004" height="30.000000000000004" as="geometry" />
        </mxCell>
        <mxCell id="WSJjHXX28u-gC4zLqkbt-44" value="" style="group" vertex="1" connectable="0" parent="TYaofzcXea8dmpiXkx5Z-1">
          <mxGeometry x="544" y="550" width="90" height="90" as="geometry" />
        </mxCell>
        <mxCell id="WSJjHXX28u-gC4zLqkbt-45" value="Power Treads" style="whiteSpace=wrap;html=1;aspect=fixed;" vertex="1" parent="WSJjHXX28u-gC4zLqkbt-44">
          <mxGeometry width="90" height="90" as="geometry" />
        </mxCell>
        <mxCell id="WSJjHXX28u-gC4zLqkbt-46" value="5" style="whiteSpace=wrap;html=1;aspect=fixed;" vertex="1" parent="WSJjHXX28u-gC4zLqkbt-44">
          <mxGeometry x="30" width="30" height="30" as="geometry" />
        </mxCell>
        <mxCell id="WSJjHXX28u-gC4zLqkbt-47" value="" style="group" vertex="1" connectable="0" parent="TYaofzcXea8dmpiXkx5Z-1">
          <mxGeometry x="314" y="550" width="90" height="90" as="geometry" />
        </mxCell>
        <mxCell id="WSJjHXX28u-gC4zLqkbt-48" value="Black King Bar" style="whiteSpace=wrap;html=1;aspect=fixed;" vertex="1" parent="WSJjHXX28u-gC4zLqkbt-47">
          <mxGeometry width="90" height="90" as="geometry" />
        </mxCell>
        <mxCell id="WSJjHXX28u-gC4zLqkbt-49" value="4" style="whiteSpace=wrap;html=1;aspect=fixed;" vertex="1" parent="WSJjHXX28u-gC4zLqkbt-47">
          <mxGeometry x="30" width="30" height="30" as="geometry" />
        </mxCell>
        <mxCell id="WSJjHXX28u-gC4zLqkbt-50" value="" style="group" vertex="1" connectable="0" parent="TYaofzcXea8dmpiXkx5Z-1">
          <mxGeometry x="424" y="550" width="90" height="90" as="geometry" />
        </mxCell>
        <mxCell id="WSJjHXX28u-gC4zLqkbt-51" value="Eul&#39;&#39;s Scepter" style="whiteSpace=wrap;html=1;aspect=fixed;" vertex="1" parent="WSJjHXX28u-gC4zLqkbt-50">
          <mxGeometry width="90" height="90" as="geometry" />
        </mxCell>
        <mxCell id="WSJjHXX28u-gC4zLqkbt-52" value="12" style="whiteSpace=wrap;html=1;aspect=fixed;" vertex="1" parent="WSJjHXX28u-gC4zLqkbt-50">
          <mxGeometry x="30" width="30" height="30" as="geometry" />
        </mxCell>
        <mxCell id="WSJjHXX28u-gC4zLqkbt-54" style="edgeStyle=none;curved=1;rounded=0;orthogonalLoop=1;jettySize=auto;html=1;exitX=0;exitY=0.5;exitDx=0;exitDy=0;entryX=0.25;entryY=0;entryDx=0;entryDy=0;fontSize=12;startSize=8;endSize=8;" edge="1" parent="TYaofzcXea8dmpiXkx5Z-1" source="TYaofzcXea8dmpiXkx5Z-39" target="TYaofzcXea8dmpiXkx5Z-75">
          <mxGeometry relative="1" as="geometry">
            <Array as="points">
              <mxPoint x="107" y="120" />
            </Array>
          </mxGeometry>
        </mxCell>
        <mxCell id="WSJjHXX28u-gC4zLqkbt-55" style="edgeStyle=none;curved=1;rounded=0;orthogonalLoop=1;jettySize=auto;html=1;exitX=1;exitY=0.5;exitDx=0;exitDy=0;entryX=0.75;entryY=0;entryDx=0;entryDy=0;fontSize=12;startSize=8;endSize=8;" edge="1" parent="TYaofzcXea8dmpiXkx5Z-1" source="TYaofzcXea8dmpiXkx5Z-39" target="TYaofzcXea8dmpiXkx5Z-105">
          <mxGeometry relative="1" as="geometry">
            <Array as="points">
              <mxPoint x="280" y="130" />
            </Array>
          </mxGeometry>
        </mxCell>
        <mxCell id="WSJjHXX28u-gC4zLqkbt-56" style="edgeStyle=none;curved=1;rounded=0;orthogonalLoop=1;jettySize=auto;html=1;exitX=0;exitY=0.5;exitDx=0;exitDy=0;entryX=0.25;entryY=0;entryDx=0;entryDy=0;fontSize=12;startSize=8;endSize=8;" edge="1" parent="TYaofzcXea8dmpiXkx5Z-1" source="TYaofzcXea8dmpiXkx5Z-42" target="TYaofzcXea8dmpiXkx5Z-78">
          <mxGeometry relative="1" as="geometry">
            <Array as="points">
              <mxPoint x="330" y="130" />
            </Array>
          </mxGeometry>
        </mxCell>
        <mxCell id="WSJjHXX28u-gC4zLqkbt-57" style="edgeStyle=none;curved=1;rounded=0;orthogonalLoop=1;jettySize=auto;html=1;exitX=1;exitY=0.5;exitDx=0;exitDy=0;entryX=0.75;entryY=0;entryDx=0;entryDy=0;fontSize=12;startSize=8;endSize=8;" edge="1" parent="TYaofzcXea8dmpiXkx5Z-1" source="TYaofzcXea8dmpiXkx5Z-42" target="TYaofzcXea8dmpiXkx5Z-102">
          <mxGeometry relative="1" as="geometry">
            <Array as="points">
              <mxPoint x="500" y="120" />
            </Array>
          </mxGeometry>
        </mxCell>
        <mxCell id="WSJjHXX28u-gC4zLqkbt-58" style="edgeStyle=none;curved=1;rounded=0;orthogonalLoop=1;jettySize=auto;html=1;exitX=0;exitY=0.5;exitDx=0;exitDy=0;entryX=0.25;entryY=0;entryDx=0;entryDy=0;fontSize=12;startSize=8;endSize=8;" edge="1" parent="TYaofzcXea8dmpiXkx5Z-1" source="TYaofzcXea8dmpiXkx5Z-51" target="WSJjHXX28u-gC4zLqkbt-1">
          <mxGeometry relative="1" as="geometry">
            <Array as="points">
              <mxPoint x="567" y="120" />
            </Array>
          </mxGeometry>
        </mxCell>
        <mxCell id="WSJjHXX28u-gC4zLqkbt-59" style="edgeStyle=none;curved=1;rounded=0;orthogonalLoop=1;jettySize=auto;html=1;exitX=1;exitY=0.5;exitDx=0;exitDy=0;entryX=0.75;entryY=0;entryDx=0;entryDy=0;fontSize=12;startSize=8;endSize=8;" edge="1" parent="TYaofzcXea8dmpiXkx5Z-1" source="TYaofzcXea8dmpiXkx5Z-51" target="TYaofzcXea8dmpiXkx5Z-84">
          <mxGeometry relative="1" as="geometry">
            <Array as="points">
              <mxPoint x="730" y="120" />
            </Array>
          </mxGeometry>
        </mxCell>
        <mxCell id="WSJjHXX28u-gC4zLqkbt-60" style="edgeStyle=none;curved=1;rounded=0;orthogonalLoop=1;jettySize=auto;html=1;exitX=1;exitY=0.5;exitDx=0;exitDy=0;entryX=0.75;entryY=0;entryDx=0;entryDy=0;fontSize=12;startSize=8;endSize=8;" edge="1" parent="TYaofzcXea8dmpiXkx5Z-1" source="TYaofzcXea8dmpiXkx5Z-66" target="TYaofzcXea8dmpiXkx5Z-96">
          <mxGeometry relative="1" as="geometry">
            <Array as="points">
              <mxPoint x="730" y="310" />
            </Array>
          </mxGeometry>
        </mxCell>
        <mxCell id="WSJjHXX28u-gC4zLqkbt-61" style="edgeStyle=none;curved=1;rounded=0;orthogonalLoop=1;jettySize=auto;html=1;exitX=0;exitY=0.5;exitDx=0;exitDy=0;entryX=0.25;entryY=0;entryDx=0;entryDy=0;fontSize=12;startSize=8;endSize=8;" edge="1" parent="TYaofzcXea8dmpiXkx5Z-1" source="TYaofzcXea8dmpiXkx5Z-66" target="TYaofzcXea8dmpiXkx5Z-90">
          <mxGeometry relative="1" as="geometry">
            <Array as="points">
              <mxPoint x="560" y="315" />
            </Array>
          </mxGeometry>
        </mxCell>
        <mxCell id="WSJjHXX28u-gC4zLqkbt-62" style="edgeStyle=none;curved=1;rounded=0;orthogonalLoop=1;jettySize=auto;html=1;exitX=1;exitY=0.5;exitDx=0;exitDy=0;entryX=0.75;entryY=0;entryDx=0;entryDy=0;fontSize=12;startSize=8;endSize=8;" edge="1" parent="TYaofzcXea8dmpiXkx5Z-1" source="TYaofzcXea8dmpiXkx5Z-63" target="TYaofzcXea8dmpiXkx5Z-99">
          <mxGeometry relative="1" as="geometry">
            <Array as="points">
              <mxPoint x="500" y="310" />
            </Array>
          </mxGeometry>
        </mxCell>
        <mxCell id="WSJjHXX28u-gC4zLqkbt-63" style="edgeStyle=none;curved=1;rounded=0;orthogonalLoop=1;jettySize=auto;html=1;exitX=0;exitY=0.5;exitDx=0;exitDy=0;entryX=0.25;entryY=0;entryDx=0;entryDy=0;fontSize=12;startSize=8;endSize=8;" edge="1" parent="TYaofzcXea8dmpiXkx5Z-1" source="TYaofzcXea8dmpiXkx5Z-63" target="WSJjHXX28u-gC4zLqkbt-4">
          <mxGeometry relative="1" as="geometry">
            <Array as="points">
              <mxPoint x="337" y="310" />
            </Array>
          </mxGeometry>
        </mxCell>
        <mxCell id="WSJjHXX28u-gC4zLqkbt-64" style="edgeStyle=none;curved=1;rounded=0;orthogonalLoop=1;jettySize=auto;html=1;exitX=1;exitY=0.5;exitDx=0;exitDy=0;entryX=0.75;entryY=0;entryDx=0;entryDy=0;fontSize=12;startSize=8;endSize=8;" edge="1" parent="TYaofzcXea8dmpiXkx5Z-1" source="TYaofzcXea8dmpiXkx5Z-54" target="TYaofzcXea8dmpiXkx5Z-108">
          <mxGeometry relative="1" as="geometry">
            <Array as="points">
              <mxPoint x="270" y="310" />
            </Array>
          </mxGeometry>
        </mxCell>
        <mxCell id="WSJjHXX28u-gC4zLqkbt-65" style="edgeStyle=none;curved=1;rounded=0;orthogonalLoop=1;jettySize=auto;html=1;exitX=0;exitY=0.5;exitDx=0;exitDy=0;entryX=0.25;entryY=0;entryDx=0;entryDy=0;fontSize=12;startSize=8;endSize=8;" edge="1" parent="TYaofzcXea8dmpiXkx5Z-1" source="TYaofzcXea8dmpiXkx5Z-54" target="TYaofzcXea8dmpiXkx5Z-87">
          <mxGeometry relative="1" as="geometry">
            <Array as="points">
              <mxPoint x="100" y="315" />
            </Array>
          </mxGeometry>
        </mxCell>
        <mxCell id="WSJjHXX28u-gC4zLqkbt-66" style="edgeStyle=none;curved=1;rounded=0;orthogonalLoop=1;jettySize=auto;html=1;exitX=0;exitY=0.5;exitDx=0;exitDy=0;entryX=0.25;entryY=0;entryDx=0;entryDy=0;fontSize=12;startSize=8;endSize=8;" edge="1" parent="TYaofzcXea8dmpiXkx5Z-1" source="TYaofzcXea8dmpiXkx5Z-45" target="WSJjHXX28u-gC4zLqkbt-7">
          <mxGeometry relative="1" as="geometry">
            <Array as="points">
              <mxPoint x="107" y="500" />
            </Array>
          </mxGeometry>
        </mxCell>
        <mxCell id="WSJjHXX28u-gC4zLqkbt-67" style="edgeStyle=none;curved=1;rounded=0;orthogonalLoop=1;jettySize=auto;html=1;exitX=1;exitY=0.5;exitDx=0;exitDy=0;entryX=0.75;entryY=0;entryDx=0;entryDy=0;fontSize=12;startSize=8;endSize=8;" edge="1" parent="TYaofzcXea8dmpiXkx5Z-1" source="TYaofzcXea8dmpiXkx5Z-45" target="WSJjHXX28u-gC4zLqkbt-10">
          <mxGeometry relative="1" as="geometry">
            <Array as="points">
              <mxPoint x="270" y="500" />
            </Array>
          </mxGeometry>
        </mxCell>
        <mxCell id="WSJjHXX28u-gC4zLqkbt-68" style="edgeStyle=none;curved=1;rounded=0;orthogonalLoop=1;jettySize=auto;html=1;exitX=0;exitY=0.5;exitDx=0;exitDy=0;entryX=0.25;entryY=0;entryDx=0;entryDy=0;fontSize=12;startSize=8;endSize=8;" edge="1" parent="TYaofzcXea8dmpiXkx5Z-1" source="TYaofzcXea8dmpiXkx5Z-48" target="WSJjHXX28u-gC4zLqkbt-48">
          <mxGeometry relative="1" as="geometry">
            <Array as="points">
              <mxPoint x="330" y="510" />
            </Array>
          </mxGeometry>
        </mxCell>
        <mxCell id="WSJjHXX28u-gC4zLqkbt-69" style="edgeStyle=none;curved=1;rounded=0;orthogonalLoop=1;jettySize=auto;html=1;exitX=1;exitY=0.5;exitDx=0;exitDy=0;entryX=0.75;entryY=0;entryDx=0;entryDy=0;fontSize=12;startSize=8;endSize=8;" edge="1" parent="TYaofzcXea8dmpiXkx5Z-1" source="TYaofzcXea8dmpiXkx5Z-48" target="WSJjHXX28u-gC4zLqkbt-51">
          <mxGeometry relative="1" as="geometry">
            <Array as="points">
              <mxPoint x="500" y="505" />
            </Array>
          </mxGeometry>
        </mxCell>
        <mxCell id="WSJjHXX28u-gC4zLqkbt-70" style="edgeStyle=none;curved=1;rounded=0;orthogonalLoop=1;jettySize=auto;html=1;exitX=0;exitY=0.5;exitDx=0;exitDy=0;entryX=0.25;entryY=0;entryDx=0;entryDy=0;fontSize=12;startSize=8;endSize=8;" edge="1" parent="TYaofzcXea8dmpiXkx5Z-1" source="TYaofzcXea8dmpiXkx5Z-57" target="WSJjHXX28u-gC4zLqkbt-45">
          <mxGeometry relative="1" as="geometry">
            <Array as="points">
              <mxPoint x="567" y="500" />
            </Array>
          </mxGeometry>
        </mxCell>
        <mxCell id="WSJjHXX28u-gC4zLqkbt-71" style="edgeStyle=none;curved=1;rounded=0;orthogonalLoop=1;jettySize=auto;html=1;exitX=1;exitY=0.5;exitDx=0;exitDy=0;entryX=0.75;entryY=0;entryDx=0;entryDy=0;fontSize=12;startSize=8;endSize=8;" edge="1" parent="TYaofzcXea8dmpiXkx5Z-1" source="TYaofzcXea8dmpiXkx5Z-57" target="WSJjHXX28u-gC4zLqkbt-42">
          <mxGeometry relative="1" as="geometry">
            <Array as="points">
              <mxPoint x="730" y="500" />
            </Array>
          </mxGeometry>
        </mxCell>
        <mxCell id="WSJjHXX28u-gC4zLqkbt-72" style="edgeStyle=none;curved=1;rounded=0;orthogonalLoop=1;jettySize=auto;html=1;exitX=0;exitY=0.5;exitDx=0;exitDy=0;entryX=0.25;entryY=0;entryDx=0;entryDy=0;fontSize=12;startSize=8;endSize=8;" edge="1" parent="TYaofzcXea8dmpiXkx5Z-1" source="TYaofzcXea8dmpiXkx5Z-72" target="WSJjHXX28u-gC4zLqkbt-36">
          <mxGeometry relative="1" as="geometry">
            <Array as="points">
              <mxPoint x="560" y="695" />
            </Array>
          </mxGeometry>
        </mxCell>
        <mxCell id="WSJjHXX28u-gC4zLqkbt-73" style="edgeStyle=none;curved=1;rounded=0;orthogonalLoop=1;jettySize=auto;html=1;exitX=1;exitY=0.5;exitDx=0;exitDy=0;entryX=0.75;entryY=0;entryDx=0;entryDy=0;fontSize=12;startSize=8;endSize=8;" edge="1" parent="TYaofzcXea8dmpiXkx5Z-1" source="TYaofzcXea8dmpiXkx5Z-72" target="WSJjHXX28u-gC4zLqkbt-39">
          <mxGeometry relative="1" as="geometry">
            <Array as="points">
              <mxPoint x="730" y="690" />
            </Array>
          </mxGeometry>
        </mxCell>
        <mxCell id="WSJjHXX28u-gC4zLqkbt-74" style="edgeStyle=none;curved=1;rounded=0;orthogonalLoop=1;jettySize=auto;html=1;exitX=1;exitY=0.5;exitDx=0;exitDy=0;entryX=0.75;entryY=0;entryDx=0;entryDy=0;fontSize=12;startSize=8;endSize=8;" edge="1" parent="TYaofzcXea8dmpiXkx5Z-1" source="TYaofzcXea8dmpiXkx5Z-69" target="WSJjHXX28u-gC4zLqkbt-28">
          <mxGeometry relative="1" as="geometry">
            <Array as="points">
              <mxPoint x="500" y="690" />
            </Array>
          </mxGeometry>
        </mxCell>
        <mxCell id="WSJjHXX28u-gC4zLqkbt-75" style="edgeStyle=none;curved=1;rounded=0;orthogonalLoop=1;jettySize=auto;html=1;exitX=0;exitY=0.5;exitDx=0;exitDy=0;entryX=0.25;entryY=0;entryDx=0;entryDy=0;fontSize=12;startSize=8;endSize=8;" edge="1" parent="TYaofzcXea8dmpiXkx5Z-1" source="TYaofzcXea8dmpiXkx5Z-69" target="WSJjHXX28u-gC4zLqkbt-31">
          <mxGeometry relative="1" as="geometry">
            <Array as="points">
              <mxPoint x="330" y="695" />
            </Array>
          </mxGeometry>
        </mxCell>
        <mxCell id="WSJjHXX28u-gC4zLqkbt-76" style="edgeStyle=none;curved=1;rounded=0;orthogonalLoop=1;jettySize=auto;html=1;exitX=1;exitY=0.5;exitDx=0;exitDy=0;entryX=0.75;entryY=0;entryDx=0;entryDy=0;fontSize=12;startSize=8;endSize=8;" edge="1" parent="TYaofzcXea8dmpiXkx5Z-1" source="TYaofzcXea8dmpiXkx5Z-60" target="WSJjHXX28u-gC4zLqkbt-22">
          <mxGeometry relative="1" as="geometry">
            <Array as="points">
              <mxPoint x="270" y="690" />
            </Array>
          </mxGeometry>
        </mxCell>
        <mxCell id="WSJjHXX28u-gC4zLqkbt-77" style="edgeStyle=none;curved=1;rounded=0;orthogonalLoop=1;jettySize=auto;html=1;exitX=0;exitY=0.5;exitDx=0;exitDy=0;entryX=0.25;entryY=0;entryDx=0;entryDy=0;fontSize=12;startSize=8;endSize=8;" edge="1" parent="TYaofzcXea8dmpiXkx5Z-1" source="TYaofzcXea8dmpiXkx5Z-60" target="WSJjHXX28u-gC4zLqkbt-25">
          <mxGeometry relative="1" as="geometry">
            <Array as="points">
              <mxPoint x="100" y="695" />
            </Array>
          </mxGeometry>
        </mxCell>
      </root>
    </mxGraphModel>
  </diagram>
  <diagram name="player-&gt;hero" id="GEs8QBthpqyScxAQNE6X">
    <mxGraphModel dx="732" dy="874" grid="1" gridSize="10" guides="1" tooltips="1" connect="1" arrows="1" fold="1" page="1" pageScale="1" pageWidth="827" pageHeight="1169" math="0" shadow="0">
      <root>
        <mxCell id="8JdjVqEkCp6kxIdKOosf-0" />
        <mxCell id="8JdjVqEkCp6kxIdKOosf-1" parent="8JdjVqEkCp6kxIdKOosf-0" />
        <mxCell id="8JdjVqEkCp6kxIdKOosf-2" value="" style="group" vertex="1" connectable="0" parent="8JdjVqEkCp6kxIdKOosf-1">
          <mxGeometry x="150" y="120" width="80" height="80" as="geometry" />
        </mxCell>
        <mxCell id="8JdjVqEkCp6kxIdKOosf-3" value="Miracle-" style="ellipse;whiteSpace=wrap;html=1;aspect=fixed;" vertex="1" parent="8JdjVqEkCp6kxIdKOosf-2">
          <mxGeometry width="80" height="80" as="geometry" />
        </mxCell>
        <mxCell id="8JdjVqEkCp6kxIdKOosf-4" value="1" style="ellipse;whiteSpace=wrap;html=1;aspect=fixed;" vertex="1" parent="8JdjVqEkCp6kxIdKOosf-2">
          <mxGeometry x="25" width="30" height="30" as="geometry" />
        </mxCell>
        <mxCell id="8JdjVqEkCp6kxIdKOosf-5" value="" style="group" vertex="1" connectable="0" parent="8JdjVqEkCp6kxIdKOosf-1">
          <mxGeometry x="380" y="120" width="80" height="80" as="geometry" />
        </mxCell>
        <mxCell id="8JdjVqEkCp6kxIdKOosf-6" value="Arteezy" style="ellipse;whiteSpace=wrap;html=1;aspect=fixed;" vertex="1" parent="8JdjVqEkCp6kxIdKOosf-5">
          <mxGeometry width="80" height="80" as="geometry" />
        </mxCell>
        <mxCell id="8JdjVqEkCp6kxIdKOosf-7" value="2" style="ellipse;whiteSpace=wrap;html=1;aspect=fixed;" vertex="1" parent="8JdjVqEkCp6kxIdKOosf-5">
          <mxGeometry x="25" width="30" height="30" as="geometry" />
        </mxCell>
        <mxCell id="8JdjVqEkCp6kxIdKOosf-8" value="" style="group" vertex="1" connectable="0" parent="8JdjVqEkCp6kxIdKOosf-1">
          <mxGeometry x="150" y="520" width="80" height="80" as="geometry" />
        </mxCell>
        <mxCell id="8JdjVqEkCp6kxIdKOosf-9" value="Ana" style="ellipse;whiteSpace=wrap;html=1;aspect=fixed;" vertex="1" parent="8JdjVqEkCp6kxIdKOosf-8">
          <mxGeometry width="80" height="80" as="geometry" />
        </mxCell>
        <mxCell id="8JdjVqEkCp6kxIdKOosf-10" value="7" style="ellipse;whiteSpace=wrap;html=1;aspect=fixed;" vertex="1" parent="8JdjVqEkCp6kxIdKOosf-8">
          <mxGeometry x="25" width="30" height="30" as="geometry" />
        </mxCell>
        <mxCell id="8JdjVqEkCp6kxIdKOosf-11" value="" style="group" vertex="1" connectable="0" parent="8JdjVqEkCp6kxIdKOosf-1">
          <mxGeometry x="610" y="120" width="80" height="80" as="geometry" />
        </mxCell>
        <mxCell id="8JdjVqEkCp6kxIdKOosf-12" value="SumaiL" style="ellipse;whiteSpace=wrap;html=1;aspect=fixed;" vertex="1" parent="8JdjVqEkCp6kxIdKOosf-11">
          <mxGeometry width="80" height="80" as="geometry" />
        </mxCell>
        <mxCell id="8JdjVqEkCp6kxIdKOosf-13" value="3" style="ellipse;whiteSpace=wrap;html=1;aspect=fixed;" vertex="1" parent="8JdjVqEkCp6kxIdKOosf-11">
          <mxGeometry x="25" width="30" height="30" as="geometry" />
        </mxCell>
        <mxCell id="8JdjVqEkCp6kxIdKOosf-14" value="" style="group" vertex="1" connectable="0" parent="8JdjVqEkCp6kxIdKOosf-1">
          <mxGeometry x="150" y="320" width="80" height="80" as="geometry" />
        </mxCell>
        <mxCell id="8JdjVqEkCp6kxIdKOosf-15" value="N0tail" style="ellipse;whiteSpace=wrap;html=1;aspect=fixed;" vertex="1" parent="8JdjVqEkCp6kxIdKOosf-14">
          <mxGeometry width="80" height="80" as="geometry" />
        </mxCell>
        <mxCell id="8JdjVqEkCp6kxIdKOosf-16" value="4" style="ellipse;whiteSpace=wrap;html=1;aspect=fixed;" vertex="1" parent="8JdjVqEkCp6kxIdKOosf-14">
          <mxGeometry x="25" width="30" height="30" as="geometry" />
        </mxCell>
        <mxCell id="8JdjVqEkCp6kxIdKOosf-17" value="" style="group" vertex="1" connectable="0" parent="8JdjVqEkCp6kxIdKOosf-1">
          <mxGeometry x="380" y="520" width="80" height="80" as="geometry" />
        </mxCell>
        <mxCell id="8JdjVqEkCp6kxIdKOosf-18" value="Topson" style="ellipse;whiteSpace=wrap;html=1;aspect=fixed;" vertex="1" parent="8JdjVqEkCp6kxIdKOosf-17">
          <mxGeometry width="80" height="80" as="geometry" />
        </mxCell>
        <mxCell id="8JdjVqEkCp6kxIdKOosf-19" value="8" style="ellipse;whiteSpace=wrap;html=1;aspect=fixed;" vertex="1" parent="8JdjVqEkCp6kxIdKOosf-17">
          <mxGeometry x="25" width="30" height="30" as="geometry" />
        </mxCell>
        <mxCell id="8JdjVqEkCp6kxIdKOosf-20" value="" style="group" vertex="1" connectable="0" parent="8JdjVqEkCp6kxIdKOosf-1">
          <mxGeometry x="610" y="520" width="80" height="80" as="geometry" />
        </mxCell>
        <mxCell id="8JdjVqEkCp6kxIdKOosf-21" value="GH" style="ellipse;whiteSpace=wrap;html=1;aspect=fixed;" vertex="1" parent="8JdjVqEkCp6kxIdKOosf-20">
          <mxGeometry width="80" height="80" as="geometry" />
        </mxCell>
        <mxCell id="8JdjVqEkCp6kxIdKOosf-22" value="9" style="ellipse;whiteSpace=wrap;html=1;aspect=fixed;" vertex="1" parent="8JdjVqEkCp6kxIdKOosf-20">
          <mxGeometry x="25" width="30" height="30" as="geometry" />
        </mxCell>
        <mxCell id="8JdjVqEkCp6kxIdKOosf-23" value="" style="group" vertex="1" connectable="0" parent="8JdjVqEkCp6kxIdKOosf-1">
          <mxGeometry x="380" y="320" width="170" height="80" as="geometry" />
        </mxCell>
        <mxCell id="8JdjVqEkCp6kxIdKOosf-24" value="Puppey" style="ellipse;whiteSpace=wrap;html=1;aspect=fixed;" vertex="1" parent="8JdjVqEkCp6kxIdKOosf-23">
          <mxGeometry width="80" height="80" as="geometry" />
        </mxCell>
        <mxCell id="8JdjVqEkCp6kxIdKOosf-25" value="5" style="ellipse;whiteSpace=wrap;html=1;aspect=fixed;" vertex="1" parent="8JdjVqEkCp6kxIdKOosf-23">
          <mxGeometry x="25" width="30" height="30" as="geometry" />
        </mxCell>
        <mxCell id="8JdjVqEkCp6kxIdKOosf-29" value="" style="group" vertex="1" connectable="0" parent="8JdjVqEkCp6kxIdKOosf-1">
          <mxGeometry x="150" y="720" width="80" height="80" as="geometry" />
        </mxCell>
        <mxCell id="8JdjVqEkCp6kxIdKOosf-30" value="KuroKy" style="ellipse;whiteSpace=wrap;html=1;aspect=fixed;" vertex="1" parent="8JdjVqEkCp6kxIdKOosf-29">
          <mxGeometry width="80" height="80" as="geometry" />
        </mxCell>
        <mxCell id="8JdjVqEkCp6kxIdKOosf-31" value="10" style="ellipse;whiteSpace=wrap;html=1;aspect=fixed;" vertex="1" parent="8JdjVqEkCp6kxIdKOosf-29">
          <mxGeometry x="25" width="30" height="30" as="geometry" />
        </mxCell>
        <mxCell id="8JdjVqEkCp6kxIdKOosf-32" value="" style="group" vertex="1" connectable="0" parent="8JdjVqEkCp6kxIdKOosf-1">
          <mxGeometry x="380" y="720" width="80" height="80" as="geometry" />
        </mxCell>
        <mxCell id="8JdjVqEkCp6kxIdKOosf-33" value="s4" style="ellipse;whiteSpace=wrap;html=1;aspect=fixed;" vertex="1" parent="8JdjVqEkCp6kxIdKOosf-32">
          <mxGeometry width="80" height="80" as="geometry" />
        </mxCell>
        <mxCell id="8JdjVqEkCp6kxIdKOosf-34" value="11" style="ellipse;whiteSpace=wrap;html=1;aspect=fixed;" vertex="1" parent="8JdjVqEkCp6kxIdKOosf-32">
          <mxGeometry x="25" width="30" height="30" as="geometry" />
        </mxCell>
        <mxCell id="8JdjVqEkCp6kxIdKOosf-35" value="" style="group" vertex="1" connectable="0" parent="8JdjVqEkCp6kxIdKOosf-1">
          <mxGeometry x="610" y="720" width="80" height="80" as="geometry" />
        </mxCell>
        <mxCell id="8JdjVqEkCp6kxIdKOosf-36" value="Fear" style="ellipse;whiteSpace=wrap;html=1;aspect=fixed;" vertex="1" parent="8JdjVqEkCp6kxIdKOosf-35">
          <mxGeometry width="80" height="80" as="geometry" />
        </mxCell>
        <mxCell id="8JdjVqEkCp6kxIdKOosf-37" value="12" style="ellipse;whiteSpace=wrap;html=1;aspect=fixed;" vertex="1" parent="8JdjVqEkCp6kxIdKOosf-35">
          <mxGeometry x="25" width="30" height="30" as="geometry" />
        </mxCell>
        <mxCell id="8JdjVqEkCp6kxIdKOosf-38" value="" style="group" vertex="1" connectable="0" parent="8JdjVqEkCp6kxIdKOosf-1">
          <mxGeometry x="320" y="210" width="90" height="70" as="geometry" />
        </mxCell>
        <mxCell id="8JdjVqEkCp6kxIdKOosf-39" value="&lt;div&gt;&lt;br&gt;&lt;/div&gt;Anti-Mage" style="rounded=1;whiteSpace=wrap;html=1;" vertex="1" parent="8JdjVqEkCp6kxIdKOosf-38">
          <mxGeometry width="90" height="70" as="geometry" />
        </mxCell>
        <mxCell id="8JdjVqEkCp6kxIdKOosf-40" value="1" style="rounded=1;whiteSpace=wrap;html=1;" vertex="1" parent="8JdjVqEkCp6kxIdKOosf-38">
          <mxGeometry x="33.75" width="22.5" height="26.25" as="geometry" />
        </mxCell>
        <mxCell id="8JdjVqEkCp6kxIdKOosf-41" value="" style="group" vertex="1" connectable="0" parent="8JdjVqEkCp6kxIdKOosf-1">
          <mxGeometry x="90" y="410" width="90" height="70" as="geometry" />
        </mxCell>
        <mxCell id="8JdjVqEkCp6kxIdKOosf-42" value="&lt;div&gt;&lt;br&gt;&lt;/div&gt;Crystal Maiden" style="rounded=1;whiteSpace=wrap;html=1;" vertex="1" parent="8JdjVqEkCp6kxIdKOosf-41">
          <mxGeometry width="90" height="70" as="geometry" />
        </mxCell>
        <mxCell id="8JdjVqEkCp6kxIdKOosf-43" value="2" style="rounded=1;whiteSpace=wrap;html=1;" vertex="1" parent="8JdjVqEkCp6kxIdKOosf-41">
          <mxGeometry x="33.75" width="22.5" height="26.25" as="geometry" />
        </mxCell>
        <mxCell id="8JdjVqEkCp6kxIdKOosf-44" value="" style="group" vertex="1" connectable="0" parent="8JdjVqEkCp6kxIdKOosf-1">
          <mxGeometry x="320" y="410" width="90" height="70" as="geometry" />
        </mxCell>
        <mxCell id="8JdjVqEkCp6kxIdKOosf-45" value="&lt;div&gt;&lt;br&gt;&lt;/div&gt;Tidehunter" style="rounded=1;whiteSpace=wrap;html=1;" vertex="1" parent="8JdjVqEkCp6kxIdKOosf-44">
          <mxGeometry width="90" height="70" as="geometry" />
        </mxCell>
        <mxCell id="8JdjVqEkCp6kxIdKOosf-46" value="7" style="rounded=1;whiteSpace=wrap;html=1;" vertex="1" parent="8JdjVqEkCp6kxIdKOosf-44">
          <mxGeometry x="33.75" width="22.5" height="26.25" as="geometry" />
        </mxCell>
        <mxCell id="8JdjVqEkCp6kxIdKOosf-47" value="" style="group" vertex="1" connectable="0" parent="8JdjVqEkCp6kxIdKOosf-1">
          <mxGeometry x="200" y="210" width="90" height="70" as="geometry" />
        </mxCell>
        <mxCell id="8JdjVqEkCp6kxIdKOosf-48" value="&lt;div&gt;&lt;br&gt;&lt;/div&gt;Storm Spirit" style="rounded=1;whiteSpace=wrap;html=1;" vertex="1" parent="8JdjVqEkCp6kxIdKOosf-47">
          <mxGeometry width="90" height="70" as="geometry" />
        </mxCell>
        <mxCell id="8JdjVqEkCp6kxIdKOosf-49" value="8" style="rounded=1;whiteSpace=wrap;html=1;" vertex="1" parent="8JdjVqEkCp6kxIdKOosf-47">
          <mxGeometry x="33.75" width="22.5" height="26.25" as="geometry" />
        </mxCell>
        <mxCell id="8JdjVqEkCp6kxIdKOosf-50" value="" style="group" vertex="1" connectable="0" parent="8JdjVqEkCp6kxIdKOosf-1">
          <mxGeometry x="550" y="410" width="90" height="70" as="geometry" />
        </mxCell>
        <mxCell id="8JdjVqEkCp6kxIdKOosf-51" value="&lt;div&gt;&lt;br&gt;&lt;/div&gt;Pudge" style="rounded=1;whiteSpace=wrap;html=1;" vertex="1" parent="8JdjVqEkCp6kxIdKOosf-50">
          <mxGeometry width="90" height="70" as="geometry" />
        </mxCell>
        <mxCell id="8JdjVqEkCp6kxIdKOosf-52" value="3" style="rounded=1;whiteSpace=wrap;html=1;" vertex="1" parent="8JdjVqEkCp6kxIdKOosf-50">
          <mxGeometry x="33.75" width="22.5" height="26.25" as="geometry" />
        </mxCell>
        <mxCell id="8JdjVqEkCp6kxIdKOosf-53" value="" style="group" vertex="1" connectable="0" parent="8JdjVqEkCp6kxIdKOosf-1">
          <mxGeometry x="90" y="210" width="90" height="70" as="geometry" />
        </mxCell>
        <mxCell id="8JdjVqEkCp6kxIdKOosf-54" value="&lt;div&gt;&lt;br&gt;&lt;/div&gt;Invoker" style="rounded=1;whiteSpace=wrap;html=1;" vertex="1" parent="8JdjVqEkCp6kxIdKOosf-53">
          <mxGeometry width="90" height="70" as="geometry" />
        </mxCell>
        <mxCell id="8JdjVqEkCp6kxIdKOosf-55" value="4" style="rounded=1;whiteSpace=wrap;html=1;" vertex="1" parent="8JdjVqEkCp6kxIdKOosf-53">
          <mxGeometry x="33.75" width="22.5" height="26.25" as="geometry" />
        </mxCell>
        <mxCell id="8JdjVqEkCp6kxIdKOosf-56" value="" style="group" vertex="1" connectable="0" parent="8JdjVqEkCp6kxIdKOosf-1">
          <mxGeometry x="200" y="610" width="90" height="70" as="geometry" />
        </mxCell>
        <mxCell id="8JdjVqEkCp6kxIdKOosf-57" value="&lt;div&gt;&lt;br&gt;&lt;/div&gt;Drow Ranger" style="rounded=1;whiteSpace=wrap;html=1;" vertex="1" parent="8JdjVqEkCp6kxIdKOosf-56">
          <mxGeometry width="90" height="70" as="geometry" />
        </mxCell>
        <mxCell id="8JdjVqEkCp6kxIdKOosf-58" value="9" style="rounded=1;whiteSpace=wrap;html=1;" vertex="1" parent="8JdjVqEkCp6kxIdKOosf-56">
          <mxGeometry x="33.75" width="22.5" height="26.25" as="geometry" />
        </mxCell>
        <mxCell id="8JdjVqEkCp6kxIdKOosf-59" value="" style="group" vertex="1" connectable="0" parent="8JdjVqEkCp6kxIdKOosf-1">
          <mxGeometry x="430" y="410" width="90" height="70" as="geometry" />
        </mxCell>
        <mxCell id="8JdjVqEkCp6kxIdKOosf-60" value="&lt;div&gt;&lt;br&gt;&lt;/div&gt;Earthshaker" style="rounded=1;whiteSpace=wrap;html=1;" vertex="1" parent="8JdjVqEkCp6kxIdKOosf-59">
          <mxGeometry width="90" height="70" as="geometry" />
        </mxCell>
        <mxCell id="8JdjVqEkCp6kxIdKOosf-61" value="10" style="rounded=1;whiteSpace=wrap;html=1;" vertex="1" parent="8JdjVqEkCp6kxIdKOosf-59">
          <mxGeometry x="33.75" width="22.5" height="26.25" as="geometry" />
        </mxCell>
        <mxCell id="8JdjVqEkCp6kxIdKOosf-62" value="" style="group" vertex="1" connectable="0" parent="8JdjVqEkCp6kxIdKOosf-1">
          <mxGeometry x="430" y="210" width="90" height="70" as="geometry" />
        </mxCell>
        <mxCell id="8JdjVqEkCp6kxIdKOosf-63" value="&lt;div&gt;&lt;br&gt;&lt;/div&gt;Juggernaut" style="rounded=1;whiteSpace=wrap;html=1;" vertex="1" parent="8JdjVqEkCp6kxIdKOosf-62">
          <mxGeometry width="90" height="70" as="geometry" />
        </mxCell>
        <mxCell id="8JdjVqEkCp6kxIdKOosf-64" value="5" style="rounded=1;whiteSpace=wrap;html=1;" vertex="1" parent="8JdjVqEkCp6kxIdKOosf-62">
          <mxGeometry x="33.75" width="22.5" height="26.25" as="geometry" />
        </mxCell>
        <mxCell id="8JdjVqEkCp6kxIdKOosf-65" value="" style="group" vertex="1" connectable="0" parent="8JdjVqEkCp6kxIdKOosf-1">
          <mxGeometry x="200" y="410" width="90" height="70" as="geometry" />
        </mxCell>
        <mxCell id="8JdjVqEkCp6kxIdKOosf-66" value="&lt;div&gt;&lt;br&gt;&lt;/div&gt;Lion" style="rounded=1;whiteSpace=wrap;html=1;" vertex="1" parent="8JdjVqEkCp6kxIdKOosf-65">
          <mxGeometry width="90" height="70" as="geometry" />
        </mxCell>
        <mxCell id="8JdjVqEkCp6kxIdKOosf-67" value="6" style="rounded=1;whiteSpace=wrap;html=1;" vertex="1" parent="8JdjVqEkCp6kxIdKOosf-65">
          <mxGeometry x="33.75" width="22.5" height="26.25" as="geometry" />
        </mxCell>
        <mxCell id="8JdjVqEkCp6kxIdKOosf-68" value="" style="group" vertex="1" connectable="0" parent="8JdjVqEkCp6kxIdKOosf-1">
          <mxGeometry x="430" y="810" width="90" height="70" as="geometry" />
        </mxCell>
        <mxCell id="8JdjVqEkCp6kxIdKOosf-69" value="&lt;div&gt;&lt;br&gt;&lt;/div&gt;Axe" style="rounded=1;whiteSpace=wrap;html=1;" vertex="1" parent="8JdjVqEkCp6kxIdKOosf-68">
          <mxGeometry width="90" height="70" as="geometry" />
        </mxCell>
        <mxCell id="8JdjVqEkCp6kxIdKOosf-70" value="11" style="rounded=1;whiteSpace=wrap;html=1;" vertex="1" parent="8JdjVqEkCp6kxIdKOosf-68">
          <mxGeometry x="33.75" width="22.5" height="26.25" as="geometry" />
        </mxCell>
        <mxCell id="8JdjVqEkCp6kxIdKOosf-71" value="" style="group" vertex="1" connectable="0" parent="8JdjVqEkCp6kxIdKOosf-1">
          <mxGeometry x="660" y="210" width="90" height="70" as="geometry" />
        </mxCell>
        <mxCell id="8JdjVqEkCp6kxIdKOosf-72" value="&lt;div&gt;&lt;br&gt;&lt;/div&gt;Shadow Fiend" style="rounded=1;whiteSpace=wrap;html=1;" vertex="1" parent="8JdjVqEkCp6kxIdKOosf-71">
          <mxGeometry width="90" height="70" as="geometry" />
        </mxCell>
        <mxCell id="8JdjVqEkCp6kxIdKOosf-73" value="12" style="rounded=1;whiteSpace=wrap;html=1;" vertex="1" parent="8JdjVqEkCp6kxIdKOosf-71">
          <mxGeometry x="33.75" width="22.5" height="26.25" as="geometry" />
        </mxCell>
        <mxCell id="HTUKXsB6OZSDCoV1_yXO-2" value="" style="group" vertex="1" connectable="0" parent="8JdjVqEkCp6kxIdKOosf-1">
          <mxGeometry x="550" y="210" width="90" height="70" as="geometry" />
        </mxCell>
        <mxCell id="HTUKXsB6OZSDCoV1_yXO-3" value="&lt;div&gt;&lt;br&gt;&lt;/div&gt;Storm Spirit" style="rounded=1;whiteSpace=wrap;html=1;" vertex="1" parent="HTUKXsB6OZSDCoV1_yXO-2">
          <mxGeometry width="90" height="70" as="geometry" />
        </mxCell>
        <mxCell id="HTUKXsB6OZSDCoV1_yXO-4" value="8" style="rounded=1;whiteSpace=wrap;html=1;" vertex="1" parent="HTUKXsB6OZSDCoV1_yXO-2">
          <mxGeometry x="33.75" width="22.5" height="26.25" as="geometry" />
        </mxCell>
        <mxCell id="8JdjVqEkCp6kxIdKOosf-26" value="" style="group" vertex="1" connectable="0" parent="8JdjVqEkCp6kxIdKOosf-1">
          <mxGeometry x="610" y="320" width="80" height="80" as="geometry" />
        </mxCell>
        <mxCell id="8JdjVqEkCp6kxIdKOosf-27" value="Dendi" style="ellipse;whiteSpace=wrap;html=1;aspect=fixed;" vertex="1" parent="8JdjVqEkCp6kxIdKOosf-26">
          <mxGeometry width="80" height="80" as="geometry" />
        </mxCell>
        <mxCell id="8JdjVqEkCp6kxIdKOosf-28" value="6" style="ellipse;whiteSpace=wrap;html=1;aspect=fixed;" vertex="1" parent="8JdjVqEkCp6kxIdKOosf-26">
          <mxGeometry x="25" width="30" height="30" as="geometry" />
        </mxCell>
        <mxCell id="HTUKXsB6OZSDCoV1_yXO-5" value="" style="group" vertex="1" connectable="0" parent="8JdjVqEkCp6kxIdKOosf-1">
          <mxGeometry x="660" y="410" width="90" height="70" as="geometry" />
        </mxCell>
        <mxCell id="HTUKXsB6OZSDCoV1_yXO-6" value="&lt;div&gt;&lt;br&gt;&lt;/div&gt;Invoker" style="rounded=1;whiteSpace=wrap;html=1;" vertex="1" parent="HTUKXsB6OZSDCoV1_yXO-5">
          <mxGeometry width="90" height="70" as="geometry" />
        </mxCell>
        <mxCell id="HTUKXsB6OZSDCoV1_yXO-7" value="4" style="rounded=1;whiteSpace=wrap;html=1;" vertex="1" parent="HTUKXsB6OZSDCoV1_yXO-5">
          <mxGeometry x="33.75" width="22.5" height="26.25" as="geometry" />
        </mxCell>
        <mxCell id="HTUKXsB6OZSDCoV1_yXO-8" value="" style="group" vertex="1" connectable="0" parent="8JdjVqEkCp6kxIdKOosf-1">
          <mxGeometry x="90" y="610" width="90" height="70" as="geometry" />
        </mxCell>
        <mxCell id="HTUKXsB6OZSDCoV1_yXO-9" value="&lt;div&gt;&lt;br&gt;&lt;/div&gt;Juggernaut" style="rounded=1;whiteSpace=wrap;html=1;" vertex="1" parent="HTUKXsB6OZSDCoV1_yXO-8">
          <mxGeometry width="90" height="70" as="geometry" />
        </mxCell>
        <mxCell id="HTUKXsB6OZSDCoV1_yXO-10" value="5" style="rounded=1;whiteSpace=wrap;html=1;" vertex="1" parent="HTUKXsB6OZSDCoV1_yXO-8">
          <mxGeometry x="33.75" width="22.5" height="26.25" as="geometry" />
        </mxCell>
        <mxCell id="HTUKXsB6OZSDCoV1_yXO-11" value="" style="group" vertex="1" connectable="0" parent="8JdjVqEkCp6kxIdKOosf-1">
          <mxGeometry x="430" y="610" width="90" height="70" as="geometry" />
        </mxCell>
        <mxCell id="HTUKXsB6OZSDCoV1_yXO-12" value="&lt;div&gt;&lt;br&gt;&lt;/div&gt;Storm Spirit" style="rounded=1;whiteSpace=wrap;html=1;" vertex="1" parent="HTUKXsB6OZSDCoV1_yXO-11">
          <mxGeometry width="90" height="70" as="geometry" />
        </mxCell>
        <mxCell id="HTUKXsB6OZSDCoV1_yXO-13" value="8" style="rounded=1;whiteSpace=wrap;html=1;" vertex="1" parent="HTUKXsB6OZSDCoV1_yXO-11">
          <mxGeometry x="33.75" width="22.5" height="26.25" as="geometry" />
        </mxCell>
        <mxCell id="HTUKXsB6OZSDCoV1_yXO-14" value="" style="group" vertex="1" connectable="0" parent="8JdjVqEkCp6kxIdKOosf-1">
          <mxGeometry x="320" y="610" width="90" height="70" as="geometry" />
        </mxCell>
        <mxCell id="HTUKXsB6OZSDCoV1_yXO-15" value="&lt;div&gt;&lt;br&gt;&lt;/div&gt;Invoker" style="rounded=1;whiteSpace=wrap;html=1;" vertex="1" parent="HTUKXsB6OZSDCoV1_yXO-14">
          <mxGeometry width="90" height="70" as="geometry" />
        </mxCell>
        <mxCell id="HTUKXsB6OZSDCoV1_yXO-16" value="4" style="rounded=1;whiteSpace=wrap;html=1;" vertex="1" parent="HTUKXsB6OZSDCoV1_yXO-14">
          <mxGeometry x="33.75" width="22.5" height="26.25" as="geometry" />
        </mxCell>
        <mxCell id="HTUKXsB6OZSDCoV1_yXO-17" value="" style="group" vertex="1" connectable="0" parent="8JdjVqEkCp6kxIdKOosf-1">
          <mxGeometry x="660" y="610" width="90" height="70" as="geometry" />
        </mxCell>
        <mxCell id="HTUKXsB6OZSDCoV1_yXO-18" value="&lt;div&gt;&lt;br&gt;&lt;/div&gt;Shadow Fiend" style="rounded=1;whiteSpace=wrap;html=1;" vertex="1" parent="HTUKXsB6OZSDCoV1_yXO-17">
          <mxGeometry width="90" height="70" as="geometry" />
        </mxCell>
        <mxCell id="HTUKXsB6OZSDCoV1_yXO-19" value="12" style="rounded=1;whiteSpace=wrap;html=1;" vertex="1" parent="HTUKXsB6OZSDCoV1_yXO-17">
          <mxGeometry x="33.75" width="22.5" height="26.25" as="geometry" />
        </mxCell>
        <mxCell id="HTUKXsB6OZSDCoV1_yXO-20" value="" style="group" vertex="1" connectable="0" parent="8JdjVqEkCp6kxIdKOosf-1">
          <mxGeometry x="550" y="610" width="90" height="70" as="geometry" />
        </mxCell>
        <mxCell id="HTUKXsB6OZSDCoV1_yXO-21" value="&lt;div&gt;&lt;br&gt;&lt;/div&gt;Lion" style="rounded=1;whiteSpace=wrap;html=1;" vertex="1" parent="HTUKXsB6OZSDCoV1_yXO-20">
          <mxGeometry width="90" height="70" as="geometry" />
        </mxCell>
        <mxCell id="HTUKXsB6OZSDCoV1_yXO-22" value="6" style="rounded=1;whiteSpace=wrap;html=1;" vertex="1" parent="HTUKXsB6OZSDCoV1_yXO-20">
          <mxGeometry x="33.75" width="22.5" height="26.25" as="geometry" />
        </mxCell>
        <mxCell id="HTUKXsB6OZSDCoV1_yXO-24" value="" style="group" vertex="1" connectable="0" parent="8JdjVqEkCp6kxIdKOosf-1">
          <mxGeometry x="90" y="810" width="90" height="70" as="geometry" />
        </mxCell>
        <mxCell id="HTUKXsB6OZSDCoV1_yXO-25" value="&lt;div&gt;&lt;br&gt;&lt;/div&gt;Crystal Maiden" style="rounded=1;whiteSpace=wrap;html=1;" vertex="1" parent="HTUKXsB6OZSDCoV1_yXO-24">
          <mxGeometry width="90" height="70" as="geometry" />
        </mxCell>
        <mxCell id="HTUKXsB6OZSDCoV1_yXO-26" value="2" style="rounded=1;whiteSpace=wrap;html=1;" vertex="1" parent="HTUKXsB6OZSDCoV1_yXO-24">
          <mxGeometry x="33.75" width="22.5" height="26.25" as="geometry" />
        </mxCell>
        <mxCell id="HTUKXsB6OZSDCoV1_yXO-27" value="" style="group" vertex="1" connectable="0" parent="8JdjVqEkCp6kxIdKOosf-1">
          <mxGeometry x="200" y="810" width="90" height="70" as="geometry" />
        </mxCell>
        <mxCell id="HTUKXsB6OZSDCoV1_yXO-28" value="&lt;div&gt;&lt;br&gt;&lt;/div&gt;Earthshaker" style="rounded=1;whiteSpace=wrap;html=1;" vertex="1" parent="HTUKXsB6OZSDCoV1_yXO-27">
          <mxGeometry width="90" height="70" as="geometry" />
        </mxCell>
        <mxCell id="HTUKXsB6OZSDCoV1_yXO-29" value="10" style="rounded=1;whiteSpace=wrap;html=1;" vertex="1" parent="HTUKXsB6OZSDCoV1_yXO-27">
          <mxGeometry x="33.75" width="22.5" height="26.25" as="geometry" />
        </mxCell>
        <mxCell id="HTUKXsB6OZSDCoV1_yXO-30" value="" style="group" vertex="1" connectable="0" parent="8JdjVqEkCp6kxIdKOosf-1">
          <mxGeometry x="320" y="810" width="90" height="70" as="geometry" />
        </mxCell>
        <mxCell id="HTUKXsB6OZSDCoV1_yXO-31" value="&lt;div&gt;&lt;br&gt;&lt;/div&gt;Tidehunter" style="rounded=1;whiteSpace=wrap;html=1;" vertex="1" parent="HTUKXsB6OZSDCoV1_yXO-30">
          <mxGeometry width="90" height="70" as="geometry" />
        </mxCell>
        <mxCell id="HTUKXsB6OZSDCoV1_yXO-32" value="7" style="rounded=1;whiteSpace=wrap;html=1;" vertex="1" parent="HTUKXsB6OZSDCoV1_yXO-30">
          <mxGeometry x="33.75" width="22.5" height="26.25" as="geometry" />
        </mxCell>
        <mxCell id="HTUKXsB6OZSDCoV1_yXO-33" value="" style="group" vertex="1" connectable="0" parent="8JdjVqEkCp6kxIdKOosf-1">
          <mxGeometry x="550" y="810" width="90" height="70" as="geometry" />
        </mxCell>
        <mxCell id="HTUKXsB6OZSDCoV1_yXO-34" value="&lt;div&gt;&lt;br&gt;&lt;/div&gt;Pudge" style="rounded=1;whiteSpace=wrap;html=1;" vertex="1" parent="HTUKXsB6OZSDCoV1_yXO-33">
          <mxGeometry width="90" height="70" as="geometry" />
        </mxCell>
        <mxCell id="HTUKXsB6OZSDCoV1_yXO-35" value="3" style="rounded=1;whiteSpace=wrap;html=1;" vertex="1" parent="HTUKXsB6OZSDCoV1_yXO-33">
          <mxGeometry x="33.75" width="22.5" height="26.25" as="geometry" />
        </mxCell>
        <mxCell id="HTUKXsB6OZSDCoV1_yXO-36" value="" style="group" vertex="1" connectable="0" parent="8JdjVqEkCp6kxIdKOosf-1">
          <mxGeometry x="660" y="810" width="90" height="70" as="geometry" />
        </mxCell>
        <mxCell id="HTUKXsB6OZSDCoV1_yXO-37" value="&lt;div&gt;&lt;br&gt;&lt;/div&gt;Drow Ranger" style="rounded=1;whiteSpace=wrap;html=1;" vertex="1" parent="HTUKXsB6OZSDCoV1_yXO-36">
          <mxGeometry width="90" height="70" as="geometry" />
        </mxCell>
        <mxCell id="HTUKXsB6OZSDCoV1_yXO-38" value="9" style="rounded=1;whiteSpace=wrap;html=1;" vertex="1" parent="HTUKXsB6OZSDCoV1_yXO-36">
          <mxGeometry x="33.75" width="22.5" height="26.25" as="geometry" />
        </mxCell>
        <mxCell id="HTUKXsB6OZSDCoV1_yXO-41" style="edgeStyle=none;curved=1;rounded=0;orthogonalLoop=1;jettySize=auto;html=1;exitX=0;exitY=0.5;exitDx=0;exitDy=0;fontSize=12;startSize=8;endSize=8;flowAnimation=0;entryX=0.25;entryY=0;entryDx=0;entryDy=0;" edge="1" parent="8JdjVqEkCp6kxIdKOosf-1" source="8JdjVqEkCp6kxIdKOosf-3" target="8JdjVqEkCp6kxIdKOosf-54">
          <mxGeometry relative="1" as="geometry">
            <mxPoint x="110" y="190" as="targetPoint" />
            <Array as="points">
              <mxPoint x="110" y="160" />
            </Array>
          </mxGeometry>
        </mxCell>
        <mxCell id="HTUKXsB6OZSDCoV1_yXO-44" style="edgeStyle=none;curved=1;rounded=0;orthogonalLoop=1;jettySize=auto;html=1;exitX=0;exitY=0.5;exitDx=0;exitDy=0;entryX=0.25;entryY=0;entryDx=0;entryDy=0;fontSize=12;startSize=8;endSize=8;" edge="1" parent="8JdjVqEkCp6kxIdKOosf-1" source="8JdjVqEkCp6kxIdKOosf-6" target="8JdjVqEkCp6kxIdKOosf-39">
          <mxGeometry relative="1" as="geometry">
            <Array as="points">
              <mxPoint x="330" y="150" />
            </Array>
          </mxGeometry>
        </mxCell>
        <mxCell id="HTUKXsB6OZSDCoV1_yXO-45" style="edgeStyle=none;curved=1;rounded=0;orthogonalLoop=1;jettySize=auto;html=1;exitX=1;exitY=0.5;exitDx=0;exitDy=0;entryX=0.75;entryY=0;entryDx=0;entryDy=0;fontSize=12;startSize=8;endSize=8;" edge="1" parent="8JdjVqEkCp6kxIdKOosf-1" source="8JdjVqEkCp6kxIdKOosf-3" target="8JdjVqEkCp6kxIdKOosf-48">
          <mxGeometry relative="1" as="geometry">
            <Array as="points">
              <mxPoint x="280" y="160" />
            </Array>
          </mxGeometry>
        </mxCell>
        <mxCell id="HTUKXsB6OZSDCoV1_yXO-46" style="edgeStyle=none;curved=1;rounded=0;orthogonalLoop=1;jettySize=auto;html=1;exitX=1;exitY=0.5;exitDx=0;exitDy=0;entryX=0.75;entryY=0;entryDx=0;entryDy=0;fontSize=12;startSize=8;endSize=8;" edge="1" parent="8JdjVqEkCp6kxIdKOosf-1" source="8JdjVqEkCp6kxIdKOosf-6" target="8JdjVqEkCp6kxIdKOosf-63">
          <mxGeometry relative="1" as="geometry">
            <Array as="points">
              <mxPoint x="500" y="160" />
            </Array>
          </mxGeometry>
        </mxCell>
        <mxCell id="HTUKXsB6OZSDCoV1_yXO-47" style="edgeStyle=none;curved=1;rounded=0;orthogonalLoop=1;jettySize=auto;html=1;exitX=0;exitY=0.5;exitDx=0;exitDy=0;entryX=0.25;entryY=0;entryDx=0;entryDy=0;fontSize=12;startSize=8;endSize=8;" edge="1" parent="8JdjVqEkCp6kxIdKOosf-1" source="8JdjVqEkCp6kxIdKOosf-12" target="HTUKXsB6OZSDCoV1_yXO-3">
          <mxGeometry relative="1" as="geometry">
            <Array as="points">
              <mxPoint x="570" y="160" />
            </Array>
          </mxGeometry>
        </mxCell>
        <mxCell id="HTUKXsB6OZSDCoV1_yXO-48" style="edgeStyle=none;curved=1;rounded=0;orthogonalLoop=1;jettySize=auto;html=1;exitX=1;exitY=0.5;exitDx=0;exitDy=0;entryX=0.75;entryY=0;entryDx=0;entryDy=0;fontSize=12;startSize=8;endSize=8;" edge="1" parent="8JdjVqEkCp6kxIdKOosf-1" source="8JdjVqEkCp6kxIdKOosf-12" target="8JdjVqEkCp6kxIdKOosf-72">
          <mxGeometry relative="1" as="geometry">
            <Array as="points">
              <mxPoint x="730" y="160" />
            </Array>
          </mxGeometry>
        </mxCell>
        <mxCell id="HTUKXsB6OZSDCoV1_yXO-49" style="edgeStyle=none;curved=1;rounded=0;orthogonalLoop=1;jettySize=auto;html=1;exitX=0;exitY=0.5;exitDx=0;exitDy=0;entryX=0.25;entryY=0;entryDx=0;entryDy=0;fontSize=12;startSize=8;endSize=8;" edge="1" parent="8JdjVqEkCp6kxIdKOosf-1" source="8JdjVqEkCp6kxIdKOosf-15" target="8JdjVqEkCp6kxIdKOosf-42">
          <mxGeometry relative="1" as="geometry">
            <Array as="points">
              <mxPoint x="110" y="360" />
            </Array>
          </mxGeometry>
        </mxCell>
        <mxCell id="HTUKXsB6OZSDCoV1_yXO-50" style="edgeStyle=none;curved=1;rounded=0;orthogonalLoop=1;jettySize=auto;html=1;exitX=1;exitY=0.5;exitDx=0;exitDy=0;entryX=0.75;entryY=0;entryDx=0;entryDy=0;fontSize=12;startSize=8;endSize=8;" edge="1" parent="8JdjVqEkCp6kxIdKOosf-1" source="8JdjVqEkCp6kxIdKOosf-15" target="8JdjVqEkCp6kxIdKOosf-66">
          <mxGeometry relative="1" as="geometry">
            <Array as="points">
              <mxPoint x="270" y="360" />
            </Array>
          </mxGeometry>
        </mxCell>
        <mxCell id="HTUKXsB6OZSDCoV1_yXO-51" style="edgeStyle=none;curved=1;rounded=0;orthogonalLoop=1;jettySize=auto;html=1;exitX=0;exitY=0.5;exitDx=0;exitDy=0;entryX=0.25;entryY=0;entryDx=0;entryDy=0;fontSize=12;startSize=8;endSize=8;" edge="1" parent="8JdjVqEkCp6kxIdKOosf-1" source="8JdjVqEkCp6kxIdKOosf-24" target="8JdjVqEkCp6kxIdKOosf-45">
          <mxGeometry relative="1" as="geometry">
            <Array as="points">
              <mxPoint x="340" y="370" />
            </Array>
          </mxGeometry>
        </mxCell>
        <mxCell id="HTUKXsB6OZSDCoV1_yXO-52" style="edgeStyle=none;curved=1;rounded=0;orthogonalLoop=1;jettySize=auto;html=1;exitX=1;exitY=0.5;exitDx=0;exitDy=0;entryX=0.75;entryY=0;entryDx=0;entryDy=0;fontSize=12;startSize=8;endSize=8;" edge="1" parent="8JdjVqEkCp6kxIdKOosf-1" source="8JdjVqEkCp6kxIdKOosf-24" target="8JdjVqEkCp6kxIdKOosf-60">
          <mxGeometry relative="1" as="geometry">
            <Array as="points">
              <mxPoint x="500" y="360" />
            </Array>
          </mxGeometry>
        </mxCell>
        <mxCell id="HTUKXsB6OZSDCoV1_yXO-53" style="edgeStyle=none;curved=1;rounded=0;orthogonalLoop=1;jettySize=auto;html=1;exitX=0;exitY=0.5;exitDx=0;exitDy=0;entryX=0.25;entryY=0;entryDx=0;entryDy=0;fontSize=12;startSize=8;endSize=8;" edge="1" parent="8JdjVqEkCp6kxIdKOosf-1" source="8JdjVqEkCp6kxIdKOosf-27" target="8JdjVqEkCp6kxIdKOosf-51">
          <mxGeometry relative="1" as="geometry">
            <Array as="points">
              <mxPoint x="570" y="360" />
            </Array>
          </mxGeometry>
        </mxCell>
        <mxCell id="HTUKXsB6OZSDCoV1_yXO-54" style="edgeStyle=none;curved=1;rounded=0;orthogonalLoop=1;jettySize=auto;html=1;exitX=1;exitY=0.5;exitDx=0;exitDy=0;entryX=0.75;entryY=0;entryDx=0;entryDy=0;fontSize=12;startSize=8;endSize=8;" edge="1" parent="8JdjVqEkCp6kxIdKOosf-1" source="8JdjVqEkCp6kxIdKOosf-27" target="HTUKXsB6OZSDCoV1_yXO-6">
          <mxGeometry relative="1" as="geometry">
            <Array as="points">
              <mxPoint x="730" y="360" />
            </Array>
          </mxGeometry>
        </mxCell>
        <mxCell id="HTUKXsB6OZSDCoV1_yXO-55" style="edgeStyle=none;curved=1;rounded=0;orthogonalLoop=1;jettySize=auto;html=1;exitX=0;exitY=0.5;exitDx=0;exitDy=0;entryX=0.25;entryY=0;entryDx=0;entryDy=0;fontSize=12;startSize=8;endSize=8;" edge="1" parent="8JdjVqEkCp6kxIdKOosf-1" source="8JdjVqEkCp6kxIdKOosf-9" target="HTUKXsB6OZSDCoV1_yXO-9">
          <mxGeometry relative="1" as="geometry">
            <Array as="points">
              <mxPoint x="110" y="560" />
            </Array>
          </mxGeometry>
        </mxCell>
        <mxCell id="HTUKXsB6OZSDCoV1_yXO-56" style="edgeStyle=none;curved=1;rounded=0;orthogonalLoop=1;jettySize=auto;html=1;exitX=1;exitY=0.5;exitDx=0;exitDy=0;entryX=0.75;entryY=0;entryDx=0;entryDy=0;fontSize=12;startSize=8;endSize=8;" edge="1" parent="8JdjVqEkCp6kxIdKOosf-1" source="8JdjVqEkCp6kxIdKOosf-9" target="8JdjVqEkCp6kxIdKOosf-57">
          <mxGeometry relative="1" as="geometry">
            <Array as="points">
              <mxPoint x="270" y="560" />
            </Array>
          </mxGeometry>
        </mxCell>
        <mxCell id="HTUKXsB6OZSDCoV1_yXO-57" style="edgeStyle=none;curved=1;rounded=0;orthogonalLoop=1;jettySize=auto;html=1;exitX=0;exitY=0.5;exitDx=0;exitDy=0;entryX=0.25;entryY=0;entryDx=0;entryDy=0;fontSize=12;startSize=8;endSize=8;" edge="1" parent="8JdjVqEkCp6kxIdKOosf-1" source="8JdjVqEkCp6kxIdKOosf-18" target="HTUKXsB6OZSDCoV1_yXO-15">
          <mxGeometry relative="1" as="geometry">
            <Array as="points">
              <mxPoint x="340" y="560" />
            </Array>
          </mxGeometry>
        </mxCell>
        <mxCell id="HTUKXsB6OZSDCoV1_yXO-58" style="edgeStyle=none;curved=1;rounded=0;orthogonalLoop=1;jettySize=auto;html=1;exitX=1;exitY=0.5;exitDx=0;exitDy=0;entryX=0.75;entryY=0;entryDx=0;entryDy=0;fontSize=12;startSize=8;endSize=8;" edge="1" parent="8JdjVqEkCp6kxIdKOosf-1" source="8JdjVqEkCp6kxIdKOosf-18" target="HTUKXsB6OZSDCoV1_yXO-12">
          <mxGeometry relative="1" as="geometry">
            <Array as="points">
              <mxPoint x="500" y="560" />
            </Array>
          </mxGeometry>
        </mxCell>
        <mxCell id="HTUKXsB6OZSDCoV1_yXO-59" style="edgeStyle=none;curved=1;rounded=0;orthogonalLoop=1;jettySize=auto;html=1;exitX=0;exitY=0.5;exitDx=0;exitDy=0;entryX=0.25;entryY=0;entryDx=0;entryDy=0;fontSize=12;startSize=8;endSize=8;" edge="1" parent="8JdjVqEkCp6kxIdKOosf-1" source="8JdjVqEkCp6kxIdKOosf-21" target="HTUKXsB6OZSDCoV1_yXO-21">
          <mxGeometry relative="1" as="geometry">
            <Array as="points">
              <mxPoint x="570" y="560" />
            </Array>
          </mxGeometry>
        </mxCell>
        <mxCell id="HTUKXsB6OZSDCoV1_yXO-60" style="edgeStyle=none;curved=1;rounded=0;orthogonalLoop=1;jettySize=auto;html=1;exitX=1;exitY=0.5;exitDx=0;exitDy=0;entryX=0.75;entryY=0;entryDx=0;entryDy=0;fontSize=12;startSize=8;endSize=8;" edge="1" parent="8JdjVqEkCp6kxIdKOosf-1" source="8JdjVqEkCp6kxIdKOosf-21" target="HTUKXsB6OZSDCoV1_yXO-18">
          <mxGeometry relative="1" as="geometry">
            <Array as="points">
              <mxPoint x="728" y="560" />
            </Array>
          </mxGeometry>
        </mxCell>
        <mxCell id="HTUKXsB6OZSDCoV1_yXO-61" style="edgeStyle=none;curved=1;rounded=0;orthogonalLoop=1;jettySize=auto;html=1;exitX=0;exitY=0.5;exitDx=0;exitDy=0;entryX=0.25;entryY=0;entryDx=0;entryDy=0;fontSize=12;startSize=8;endSize=8;" edge="1" parent="8JdjVqEkCp6kxIdKOosf-1" source="8JdjVqEkCp6kxIdKOosf-30" target="HTUKXsB6OZSDCoV1_yXO-25">
          <mxGeometry relative="1" as="geometry">
            <Array as="points">
              <mxPoint x="110" y="760" />
            </Array>
          </mxGeometry>
        </mxCell>
        <mxCell id="HTUKXsB6OZSDCoV1_yXO-62" style="edgeStyle=none;curved=1;rounded=0;orthogonalLoop=1;jettySize=auto;html=1;exitX=1;exitY=0.5;exitDx=0;exitDy=0;entryX=0.75;entryY=0;entryDx=0;entryDy=0;fontSize=12;startSize=8;endSize=8;" edge="1" parent="8JdjVqEkCp6kxIdKOosf-1" source="8JdjVqEkCp6kxIdKOosf-30" target="HTUKXsB6OZSDCoV1_yXO-28">
          <mxGeometry relative="1" as="geometry">
            <Array as="points">
              <mxPoint x="270" y="760" />
            </Array>
          </mxGeometry>
        </mxCell>
        <mxCell id="HTUKXsB6OZSDCoV1_yXO-63" style="edgeStyle=none;curved=1;rounded=0;orthogonalLoop=1;jettySize=auto;html=1;exitX=0;exitY=0.5;exitDx=0;exitDy=0;entryX=0.25;entryY=0;entryDx=0;entryDy=0;fontSize=12;startSize=8;endSize=8;" edge="1" parent="8JdjVqEkCp6kxIdKOosf-1" source="8JdjVqEkCp6kxIdKOosf-33" target="HTUKXsB6OZSDCoV1_yXO-31">
          <mxGeometry relative="1" as="geometry">
            <Array as="points">
              <mxPoint x="340" y="760" />
            </Array>
          </mxGeometry>
        </mxCell>
        <mxCell id="HTUKXsB6OZSDCoV1_yXO-64" style="edgeStyle=none;curved=1;rounded=0;orthogonalLoop=1;jettySize=auto;html=1;exitX=1;exitY=0.5;exitDx=0;exitDy=0;entryX=0.75;entryY=0;entryDx=0;entryDy=0;fontSize=12;startSize=8;endSize=8;" edge="1" parent="8JdjVqEkCp6kxIdKOosf-1" source="8JdjVqEkCp6kxIdKOosf-33" target="8JdjVqEkCp6kxIdKOosf-69">
          <mxGeometry relative="1" as="geometry">
            <Array as="points">
              <mxPoint x="500" y="760" />
            </Array>
          </mxGeometry>
        </mxCell>
        <mxCell id="HTUKXsB6OZSDCoV1_yXO-65" style="edgeStyle=none;curved=1;rounded=0;orthogonalLoop=1;jettySize=auto;html=1;exitX=0;exitY=0.5;exitDx=0;exitDy=0;entryX=0.25;entryY=0;entryDx=0;entryDy=0;fontSize=12;startSize=8;endSize=8;" edge="1" parent="8JdjVqEkCp6kxIdKOosf-1" source="8JdjVqEkCp6kxIdKOosf-36" target="HTUKXsB6OZSDCoV1_yXO-34">
          <mxGeometry relative="1" as="geometry">
            <Array as="points">
              <mxPoint x="570" y="760" />
            </Array>
          </mxGeometry>
        </mxCell>
        <mxCell id="HTUKXsB6OZSDCoV1_yXO-66" style="edgeStyle=none;curved=1;rounded=0;orthogonalLoop=1;jettySize=auto;html=1;exitX=1;exitY=0.5;exitDx=0;exitDy=0;entryX=0.75;entryY=0;entryDx=0;entryDy=0;fontSize=12;startSize=8;endSize=8;" edge="1" parent="8JdjVqEkCp6kxIdKOosf-1" source="8JdjVqEkCp6kxIdKOosf-36" target="HTUKXsB6OZSDCoV1_yXO-37">
          <mxGeometry relative="1" as="geometry">
            <Array as="points">
              <mxPoint x="730" y="760" />
            </Array>
          </mxGeometry>
        </mxCell>
      </root>
    </mxGraphModel>
  </diagram>
  <diagram name="player-&gt;item" id="8R9L33NM7S-t5bTYCCeZ">
    <mxGraphModel dx="1264" dy="1509" grid="1" gridSize="10" guides="1" tooltips="1" connect="1" arrows="1" fold="1" page="1" pageScale="1" pageWidth="827" pageHeight="1169" math="0" shadow="0">
      <root>
        <mxCell id="OsrhwY9meYCc-dFwqXJU-0" />
        <mxCell id="OsrhwY9meYCc-dFwqXJU-1" parent="OsrhwY9meYCc-dFwqXJU-0" />
        <mxCell id="OsrhwY9meYCc-dFwqXJU-2" value="" style="group" vertex="1" connectable="0" parent="OsrhwY9meYCc-dFwqXJU-1">
          <mxGeometry x="141" y="110" width="80" height="80" as="geometry" />
        </mxCell>
        <mxCell id="OsrhwY9meYCc-dFwqXJU-3" value="Miracle-" style="ellipse;whiteSpace=wrap;html=1;aspect=fixed;" vertex="1" parent="OsrhwY9meYCc-dFwqXJU-2">
          <mxGeometry width="80" height="80" as="geometry" />
        </mxCell>
        <mxCell id="OsrhwY9meYCc-dFwqXJU-4" value="1" style="ellipse;whiteSpace=wrap;html=1;aspect=fixed;" vertex="1" parent="OsrhwY9meYCc-dFwqXJU-2">
          <mxGeometry x="25" width="30" height="30" as="geometry" />
        </mxCell>
        <mxCell id="OsrhwY9meYCc-dFwqXJU-5" value="" style="group" vertex="1" connectable="0" parent="OsrhwY9meYCc-dFwqXJU-1">
          <mxGeometry x="371" y="110" width="80" height="80" as="geometry" />
        </mxCell>
        <mxCell id="OsrhwY9meYCc-dFwqXJU-6" value="Arteezy" style="ellipse;whiteSpace=wrap;html=1;aspect=fixed;" vertex="1" parent="OsrhwY9meYCc-dFwqXJU-5">
          <mxGeometry width="80" height="80" as="geometry" />
        </mxCell>
        <mxCell id="OsrhwY9meYCc-dFwqXJU-7" value="2" style="ellipse;whiteSpace=wrap;html=1;aspect=fixed;" vertex="1" parent="OsrhwY9meYCc-dFwqXJU-5">
          <mxGeometry x="25" width="30" height="30" as="geometry" />
        </mxCell>
        <mxCell id="OsrhwY9meYCc-dFwqXJU-8" value="" style="group" vertex="1" connectable="0" parent="OsrhwY9meYCc-dFwqXJU-1">
          <mxGeometry x="141" y="530" width="80" height="80" as="geometry" />
        </mxCell>
        <mxCell id="OsrhwY9meYCc-dFwqXJU-9" value="Ana" style="ellipse;whiteSpace=wrap;html=1;aspect=fixed;" vertex="1" parent="OsrhwY9meYCc-dFwqXJU-8">
          <mxGeometry width="80" height="80" as="geometry" />
        </mxCell>
        <mxCell id="OsrhwY9meYCc-dFwqXJU-10" value="7" style="ellipse;whiteSpace=wrap;html=1;aspect=fixed;" vertex="1" parent="OsrhwY9meYCc-dFwqXJU-8">
          <mxGeometry x="25" width="30" height="30" as="geometry" />
        </mxCell>
        <mxCell id="OsrhwY9meYCc-dFwqXJU-11" value="" style="group" vertex="1" connectable="0" parent="OsrhwY9meYCc-dFwqXJU-1">
          <mxGeometry x="600" y="110" width="80" height="80" as="geometry" />
        </mxCell>
        <mxCell id="OsrhwY9meYCc-dFwqXJU-12" value="SumaiL" style="ellipse;whiteSpace=wrap;html=1;aspect=fixed;" vertex="1" parent="OsrhwY9meYCc-dFwqXJU-11">
          <mxGeometry width="80" height="80" as="geometry" />
        </mxCell>
        <mxCell id="OsrhwY9meYCc-dFwqXJU-13" value="3" style="ellipse;whiteSpace=wrap;html=1;aspect=fixed;" vertex="1" parent="OsrhwY9meYCc-dFwqXJU-11">
          <mxGeometry x="25" width="30" height="30" as="geometry" />
        </mxCell>
        <mxCell id="OsrhwY9meYCc-dFwqXJU-14" value="" style="group" vertex="1" connectable="0" parent="OsrhwY9meYCc-dFwqXJU-1">
          <mxGeometry x="141" y="320" width="80" height="80" as="geometry" />
        </mxCell>
        <mxCell id="OsrhwY9meYCc-dFwqXJU-15" value="N0tail" style="ellipse;whiteSpace=wrap;html=1;aspect=fixed;" vertex="1" parent="OsrhwY9meYCc-dFwqXJU-14">
          <mxGeometry width="80" height="80" as="geometry" />
        </mxCell>
        <mxCell id="OsrhwY9meYCc-dFwqXJU-16" value="4" style="ellipse;whiteSpace=wrap;html=1;aspect=fixed;" vertex="1" parent="OsrhwY9meYCc-dFwqXJU-14">
          <mxGeometry x="25" width="30" height="30" as="geometry" />
        </mxCell>
        <mxCell id="OsrhwY9meYCc-dFwqXJU-17" value="" style="group" vertex="1" connectable="0" parent="OsrhwY9meYCc-dFwqXJU-1">
          <mxGeometry x="371" y="530" width="80" height="80" as="geometry" />
        </mxCell>
        <mxCell id="OsrhwY9meYCc-dFwqXJU-18" value="Topson" style="ellipse;whiteSpace=wrap;html=1;aspect=fixed;" vertex="1" parent="OsrhwY9meYCc-dFwqXJU-17">
          <mxGeometry width="80" height="80" as="geometry" />
        </mxCell>
        <mxCell id="OsrhwY9meYCc-dFwqXJU-19" value="8" style="ellipse;whiteSpace=wrap;html=1;aspect=fixed;" vertex="1" parent="OsrhwY9meYCc-dFwqXJU-17">
          <mxGeometry x="25" width="30" height="30" as="geometry" />
        </mxCell>
        <mxCell id="OsrhwY9meYCc-dFwqXJU-20" value="" style="group" vertex="1" connectable="0" parent="OsrhwY9meYCc-dFwqXJU-1">
          <mxGeometry x="601" y="530" width="80" height="80" as="geometry" />
        </mxCell>
        <mxCell id="OsrhwY9meYCc-dFwqXJU-21" value="GH" style="ellipse;whiteSpace=wrap;html=1;aspect=fixed;" vertex="1" parent="OsrhwY9meYCc-dFwqXJU-20">
          <mxGeometry width="80" height="80" as="geometry" />
        </mxCell>
        <mxCell id="OsrhwY9meYCc-dFwqXJU-22" value="9" style="ellipse;whiteSpace=wrap;html=1;aspect=fixed;" vertex="1" parent="OsrhwY9meYCc-dFwqXJU-20">
          <mxGeometry x="25" width="30" height="30" as="geometry" />
        </mxCell>
        <mxCell id="OsrhwY9meYCc-dFwqXJU-23" value="" style="group" vertex="1" connectable="0" parent="OsrhwY9meYCc-dFwqXJU-1">
          <mxGeometry x="371" y="320" width="170" height="80" as="geometry" />
        </mxCell>
        <mxCell id="OsrhwY9meYCc-dFwqXJU-24" value="Puppey" style="ellipse;whiteSpace=wrap;html=1;aspect=fixed;" vertex="1" parent="OsrhwY9meYCc-dFwqXJU-23">
          <mxGeometry width="80" height="80" as="geometry" />
        </mxCell>
        <mxCell id="OsrhwY9meYCc-dFwqXJU-25" value="5" style="ellipse;whiteSpace=wrap;html=1;aspect=fixed;" vertex="1" parent="OsrhwY9meYCc-dFwqXJU-23">
          <mxGeometry x="25" width="30" height="30" as="geometry" />
        </mxCell>
        <mxCell id="OsrhwY9meYCc-dFwqXJU-29" value="" style="group" vertex="1" connectable="0" parent="OsrhwY9meYCc-dFwqXJU-1">
          <mxGeometry x="141" y="740" width="80" height="80" as="geometry" />
        </mxCell>
        <mxCell id="OsrhwY9meYCc-dFwqXJU-30" value="KuroKy" style="ellipse;whiteSpace=wrap;html=1;aspect=fixed;" vertex="1" parent="OsrhwY9meYCc-dFwqXJU-29">
          <mxGeometry width="80" height="80" as="geometry" />
        </mxCell>
        <mxCell id="OsrhwY9meYCc-dFwqXJU-31" value="10" style="ellipse;whiteSpace=wrap;html=1;aspect=fixed;" vertex="1" parent="OsrhwY9meYCc-dFwqXJU-29">
          <mxGeometry x="25" width="30" height="30" as="geometry" />
        </mxCell>
        <mxCell id="OsrhwY9meYCc-dFwqXJU-32" value="" style="group" vertex="1" connectable="0" parent="OsrhwY9meYCc-dFwqXJU-1">
          <mxGeometry x="371" y="740" width="80" height="80" as="geometry" />
        </mxCell>
        <mxCell id="OsrhwY9meYCc-dFwqXJU-33" value="s4" style="ellipse;whiteSpace=wrap;html=1;aspect=fixed;" vertex="1" parent="OsrhwY9meYCc-dFwqXJU-32">
          <mxGeometry width="80" height="80" as="geometry" />
        </mxCell>
        <mxCell id="OsrhwY9meYCc-dFwqXJU-34" value="11" style="ellipse;whiteSpace=wrap;html=1;aspect=fixed;" vertex="1" parent="OsrhwY9meYCc-dFwqXJU-32">
          <mxGeometry x="25" width="30" height="30" as="geometry" />
        </mxCell>
        <mxCell id="OsrhwY9meYCc-dFwqXJU-35" value="" style="group" vertex="1" connectable="0" parent="OsrhwY9meYCc-dFwqXJU-1">
          <mxGeometry x="601" y="740" width="80" height="80" as="geometry" />
        </mxCell>
        <mxCell id="OsrhwY9meYCc-dFwqXJU-36" value="Fear" style="ellipse;whiteSpace=wrap;html=1;aspect=fixed;" vertex="1" parent="OsrhwY9meYCc-dFwqXJU-35">
          <mxGeometry width="80" height="80" as="geometry" />
        </mxCell>
        <mxCell id="OsrhwY9meYCc-dFwqXJU-37" value="12" style="ellipse;whiteSpace=wrap;html=1;aspect=fixed;" vertex="1" parent="OsrhwY9meYCc-dFwqXJU-35">
          <mxGeometry x="25" width="30" height="30" as="geometry" />
        </mxCell>
        <mxCell id="OsrhwY9meYCc-dFwqXJU-74" value="" style="group" vertex="1" connectable="0" parent="OsrhwY9meYCc-dFwqXJU-1">
          <mxGeometry x="311" y="200" width="90" height="90" as="geometry" />
        </mxCell>
        <mxCell id="OsrhwY9meYCc-dFwqXJU-75" value="Battle Fury" style="whiteSpace=wrap;html=1;aspect=fixed;" vertex="1" parent="OsrhwY9meYCc-dFwqXJU-74">
          <mxGeometry width="90" height="90" as="geometry" />
        </mxCell>
        <mxCell id="OsrhwY9meYCc-dFwqXJU-76" value="1" style="whiteSpace=wrap;html=1;aspect=fixed;" vertex="1" parent="OsrhwY9meYCc-dFwqXJU-74">
          <mxGeometry x="30.000000000000004" width="30.000000000000004" height="30.000000000000004" as="geometry" />
        </mxCell>
        <mxCell id="OsrhwY9meYCc-dFwqXJU-77" value="" style="group" vertex="1" connectable="0" parent="OsrhwY9meYCc-dFwqXJU-1">
          <mxGeometry x="81" y="200" width="90" height="90" as="geometry" />
        </mxCell>
        <mxCell id="OsrhwY9meYCc-dFwqXJU-78" value="Blink Dagger" style="whiteSpace=wrap;html=1;aspect=fixed;" vertex="1" parent="OsrhwY9meYCc-dFwqXJU-77">
          <mxGeometry width="90" height="90" as="geometry" />
        </mxCell>
        <mxCell id="OsrhwY9meYCc-dFwqXJU-79" value="2" style="whiteSpace=wrap;html=1;aspect=fixed;" vertex="1" parent="OsrhwY9meYCc-dFwqXJU-77">
          <mxGeometry x="30" width="30" height="30" as="geometry" />
        </mxCell>
        <mxCell id="OsrhwY9meYCc-dFwqXJU-80" value="" style="group" vertex="1" connectable="0" parent="OsrhwY9meYCc-dFwqXJU-1">
          <mxGeometry x="421" y="410" width="90" height="90" as="geometry" />
        </mxCell>
        <mxCell id="OsrhwY9meYCc-dFwqXJU-81" value="Divine Rapier" style="whiteSpace=wrap;html=1;aspect=fixed;" vertex="1" parent="OsrhwY9meYCc-dFwqXJU-80">
          <mxGeometry width="90" height="90" as="geometry" />
        </mxCell>
        <mxCell id="OsrhwY9meYCc-dFwqXJU-82" value="7" style="whiteSpace=wrap;html=1;aspect=fixed;" vertex="1" parent="OsrhwY9meYCc-dFwqXJU-80">
          <mxGeometry x="30.000000000000004" width="30.000000000000004" height="30.000000000000004" as="geometry" />
        </mxCell>
        <mxCell id="OsrhwY9meYCc-dFwqXJU-83" value="" style="group" vertex="1" connectable="0" parent="OsrhwY9meYCc-dFwqXJU-1">
          <mxGeometry x="651" y="620" width="90" height="90" as="geometry" />
        </mxCell>
        <mxCell id="OsrhwY9meYCc-dFwqXJU-84" value="Heart of Tarrasque" style="whiteSpace=wrap;html=1;aspect=fixed;" vertex="1" parent="OsrhwY9meYCc-dFwqXJU-83">
          <mxGeometry width="90" height="90" as="geometry" />
        </mxCell>
        <mxCell id="OsrhwY9meYCc-dFwqXJU-85" value="8" style="whiteSpace=wrap;html=1;aspect=fixed;" vertex="1" parent="OsrhwY9meYCc-dFwqXJU-83">
          <mxGeometry x="30" width="30" height="30" as="geometry" />
        </mxCell>
        <mxCell id="OsrhwY9meYCc-dFwqXJU-86" value="" style="group" vertex="1" connectable="0" parent="OsrhwY9meYCc-dFwqXJU-1">
          <mxGeometry x="191" y="200" width="90" height="90" as="geometry" />
        </mxCell>
        <mxCell id="OsrhwY9meYCc-dFwqXJU-87" value="Aghanim&#39;&#39;s Scepter" style="whiteSpace=wrap;html=1;aspect=fixed;" vertex="1" parent="OsrhwY9meYCc-dFwqXJU-86">
          <mxGeometry width="90" height="90" as="geometry" />
        </mxCell>
        <mxCell id="OsrhwY9meYCc-dFwqXJU-88" value="3" style="whiteSpace=wrap;html=1;aspect=fixed;" vertex="1" parent="OsrhwY9meYCc-dFwqXJU-86">
          <mxGeometry x="30" width="30" height="30" as="geometry" />
        </mxCell>
        <mxCell id="OsrhwY9meYCc-dFwqXJU-89" value="" style="group" vertex="1" connectable="0" parent="OsrhwY9meYCc-dFwqXJU-1">
          <mxGeometry x="421" y="200" width="90" height="90" as="geometry" />
        </mxCell>
        <mxCell id="OsrhwY9meYCc-dFwqXJU-90" value="Black King Bar" style="whiteSpace=wrap;html=1;aspect=fixed;" vertex="1" parent="OsrhwY9meYCc-dFwqXJU-89">
          <mxGeometry width="90" height="90" as="geometry" />
        </mxCell>
        <mxCell id="OsrhwY9meYCc-dFwqXJU-91" value="4" style="whiteSpace=wrap;html=1;aspect=fixed;" vertex="1" parent="OsrhwY9meYCc-dFwqXJU-89">
          <mxGeometry x="30" width="30" height="30" as="geometry" />
        </mxCell>
        <mxCell id="OsrhwY9meYCc-dFwqXJU-92" value="" style="group" vertex="1" connectable="0" parent="OsrhwY9meYCc-dFwqXJU-1">
          <mxGeometry x="81" y="410" width="90" height="90" as="geometry" />
        </mxCell>
        <mxCell id="OsrhwY9meYCc-dFwqXJU-93" value="Scythe of Vyse" style="whiteSpace=wrap;html=1;aspect=fixed;" vertex="1" parent="OsrhwY9meYCc-dFwqXJU-92">
          <mxGeometry width="90" height="90" as="geometry" />
        </mxCell>
        <mxCell id="OsrhwY9meYCc-dFwqXJU-94" value="9" style="whiteSpace=wrap;html=1;aspect=fixed;" vertex="1" parent="OsrhwY9meYCc-dFwqXJU-92">
          <mxGeometry x="30" width="30" height="30" as="geometry" />
        </mxCell>
        <mxCell id="OsrhwY9meYCc-dFwqXJU-95" value="" style="group" vertex="1" connectable="0" parent="OsrhwY9meYCc-dFwqXJU-1">
          <mxGeometry x="191" y="410" width="90" height="90" as="geometry" />
        </mxCell>
        <mxCell id="OsrhwY9meYCc-dFwqXJU-96" value="Pipe of Insight" style="whiteSpace=wrap;html=1;aspect=fixed;" vertex="1" parent="OsrhwY9meYCc-dFwqXJU-95">
          <mxGeometry width="90" height="90" as="geometry" />
        </mxCell>
        <mxCell id="OsrhwY9meYCc-dFwqXJU-97" value="10" style="whiteSpace=wrap;html=1;aspect=fixed;" vertex="1" parent="OsrhwY9meYCc-dFwqXJU-95">
          <mxGeometry x="30" width="30" height="30" as="geometry" />
        </mxCell>
        <mxCell id="OsrhwY9meYCc-dFwqXJU-101" value="" style="group" vertex="1" connectable="0" parent="OsrhwY9meYCc-dFwqXJU-1">
          <mxGeometry x="311" y="410" width="90" height="90" as="geometry" />
        </mxCell>
        <mxCell id="OsrhwY9meYCc-dFwqXJU-102" value="Hand of Midas" style="whiteSpace=wrap;html=1;aspect=fixed;" vertex="1" parent="OsrhwY9meYCc-dFwqXJU-101">
          <mxGeometry width="90" height="90" as="geometry" />
        </mxCell>
        <mxCell id="OsrhwY9meYCc-dFwqXJU-103" value="6" style="whiteSpace=wrap;html=1;aspect=fixed;" vertex="1" parent="OsrhwY9meYCc-dFwqXJU-101">
          <mxGeometry x="30" width="30" height="30" as="geometry" />
        </mxCell>
        <mxCell id="OsrhwY9meYCc-dFwqXJU-104" value="11" style="group" vertex="1" connectable="0" parent="OsrhwY9meYCc-dFwqXJU-1">
          <mxGeometry x="311" y="830" width="90" height="90" as="geometry" />
        </mxCell>
        <mxCell id="OsrhwY9meYCc-dFwqXJU-105" value="Radiance" style="whiteSpace=wrap;html=1;aspect=fixed;" vertex="1" parent="OsrhwY9meYCc-dFwqXJU-104">
          <mxGeometry width="90" height="90" as="geometry" />
        </mxCell>
        <mxCell id="OsrhwY9meYCc-dFwqXJU-106" value="11" style="whiteSpace=wrap;html=1;aspect=fixed;" vertex="1" parent="OsrhwY9meYCc-dFwqXJU-104">
          <mxGeometry x="30" width="30" height="30" as="geometry" />
        </mxCell>
        <mxCell id="OsrhwY9meYCc-dFwqXJU-107" value="" style="group" vertex="1" connectable="0" parent="OsrhwY9meYCc-dFwqXJU-1">
          <mxGeometry x="651" y="200" width="90" height="90" as="geometry" />
        </mxCell>
        <mxCell id="OsrhwY9meYCc-dFwqXJU-108" value="Eul&#39;&#39;s Scepter" style="whiteSpace=wrap;html=1;aspect=fixed;" vertex="1" parent="OsrhwY9meYCc-dFwqXJU-107">
          <mxGeometry width="90" height="90" as="geometry" />
        </mxCell>
        <mxCell id="OsrhwY9meYCc-dFwqXJU-109" value="12" style="whiteSpace=wrap;html=1;aspect=fixed;" vertex="1" parent="OsrhwY9meYCc-dFwqXJU-107">
          <mxGeometry x="30" width="30" height="30" as="geometry" />
        </mxCell>
        <mxCell id="nO--Adpjq3xge81_yDRH-3" value="" style="group" vertex="1" connectable="0" parent="OsrhwY9meYCc-dFwqXJU-1">
          <mxGeometry x="541" y="200" width="90" height="90" as="geometry" />
        </mxCell>
        <mxCell id="nO--Adpjq3xge81_yDRH-4" value="Blink Dagger" style="whiteSpace=wrap;html=1;aspect=fixed;" vertex="1" parent="nO--Adpjq3xge81_yDRH-3">
          <mxGeometry width="90" height="90" as="geometry" />
        </mxCell>
        <mxCell id="nO--Adpjq3xge81_yDRH-5" value="2" style="whiteSpace=wrap;html=1;aspect=fixed;" vertex="1" parent="nO--Adpjq3xge81_yDRH-3">
          <mxGeometry x="30" width="30" height="30" as="geometry" />
        </mxCell>
        <mxCell id="nO--Adpjq3xge81_yDRH-6" value="" style="group" vertex="1" connectable="0" parent="OsrhwY9meYCc-dFwqXJU-1">
          <mxGeometry x="541" y="410" width="90" height="90" as="geometry" />
        </mxCell>
        <mxCell id="nO--Adpjq3xge81_yDRH-7" value="Blink Dagger" style="whiteSpace=wrap;html=1;aspect=fixed;" vertex="1" parent="nO--Adpjq3xge81_yDRH-6">
          <mxGeometry width="90" height="90" as="geometry" />
        </mxCell>
        <mxCell id="nO--Adpjq3xge81_yDRH-8" value="2" style="whiteSpace=wrap;html=1;aspect=fixed;" vertex="1" parent="nO--Adpjq3xge81_yDRH-6">
          <mxGeometry x="30" width="30" height="30" as="geometry" />
        </mxCell>
        <mxCell id="nO--Adpjq3xge81_yDRH-9" value="" style="group" vertex="1" connectable="0" parent="OsrhwY9meYCc-dFwqXJU-1">
          <mxGeometry x="651" y="410" width="90" height="90" as="geometry" />
        </mxCell>
        <mxCell id="nO--Adpjq3xge81_yDRH-10" value="Aghanim&#39;&#39;s Scepter" style="whiteSpace=wrap;html=1;aspect=fixed;" vertex="1" parent="nO--Adpjq3xge81_yDRH-9">
          <mxGeometry width="90" height="90" as="geometry" />
        </mxCell>
        <mxCell id="nO--Adpjq3xge81_yDRH-11" value="3" style="whiteSpace=wrap;html=1;aspect=fixed;" vertex="1" parent="nO--Adpjq3xge81_yDRH-9">
          <mxGeometry x="30" width="30" height="30" as="geometry" />
        </mxCell>
        <mxCell id="nO--Adpjq3xge81_yDRH-12" value="" style="group" vertex="1" connectable="0" parent="OsrhwY9meYCc-dFwqXJU-1">
          <mxGeometry x="81" y="620" width="90" height="90" as="geometry" />
        </mxCell>
        <mxCell id="nO--Adpjq3xge81_yDRH-13" value="Battle Fury" style="whiteSpace=wrap;html=1;aspect=fixed;" vertex="1" parent="nO--Adpjq3xge81_yDRH-12">
          <mxGeometry width="90" height="90" as="geometry" />
        </mxCell>
        <mxCell id="nO--Adpjq3xge81_yDRH-14" value="1" style="whiteSpace=wrap;html=1;aspect=fixed;" vertex="1" parent="nO--Adpjq3xge81_yDRH-12">
          <mxGeometry x="30.000000000000004" width="30.000000000000004" height="30.000000000000004" as="geometry" />
        </mxCell>
        <mxCell id="nO--Adpjq3xge81_yDRH-15" value="" style="group" vertex="1" connectable="0" parent="OsrhwY9meYCc-dFwqXJU-1">
          <mxGeometry x="191" y="620" width="90" height="90" as="geometry" />
        </mxCell>
        <mxCell id="nO--Adpjq3xge81_yDRH-16" value="Black King Bar" style="whiteSpace=wrap;html=1;aspect=fixed;" vertex="1" parent="nO--Adpjq3xge81_yDRH-15">
          <mxGeometry width="90" height="90" as="geometry" />
        </mxCell>
        <mxCell id="nO--Adpjq3xge81_yDRH-17" value="4" style="whiteSpace=wrap;html=1;aspect=fixed;" vertex="1" parent="nO--Adpjq3xge81_yDRH-15">
          <mxGeometry x="30" width="30" height="30" as="geometry" />
        </mxCell>
        <mxCell id="nO--Adpjq3xge81_yDRH-18" value="" style="group" vertex="1" connectable="0" parent="OsrhwY9meYCc-dFwqXJU-1">
          <mxGeometry x="311" y="620" width="90" height="90" as="geometry" />
        </mxCell>
        <mxCell id="nO--Adpjq3xge81_yDRH-19" value="Aghanim&#39;&#39;s Scepter" style="whiteSpace=wrap;html=1;aspect=fixed;" vertex="1" parent="nO--Adpjq3xge81_yDRH-18">
          <mxGeometry width="90" height="90" as="geometry" />
        </mxCell>
        <mxCell id="nO--Adpjq3xge81_yDRH-20" value="3" style="whiteSpace=wrap;html=1;aspect=fixed;" vertex="1" parent="nO--Adpjq3xge81_yDRH-18">
          <mxGeometry x="30" width="30" height="30" as="geometry" />
        </mxCell>
        <mxCell id="nO--Adpjq3xge81_yDRH-21" value="" style="group" vertex="1" connectable="0" parent="OsrhwY9meYCc-dFwqXJU-1">
          <mxGeometry x="421" y="620" width="90" height="90" as="geometry" />
        </mxCell>
        <mxCell id="nO--Adpjq3xge81_yDRH-22" value="Eul&#39;&#39;s Scepter" style="whiteSpace=wrap;html=1;aspect=fixed;" vertex="1" parent="nO--Adpjq3xge81_yDRH-21">
          <mxGeometry width="90" height="90" as="geometry" />
        </mxCell>
        <mxCell id="nO--Adpjq3xge81_yDRH-23" value="12" style="whiteSpace=wrap;html=1;aspect=fixed;" vertex="1" parent="nO--Adpjq3xge81_yDRH-21">
          <mxGeometry x="30" width="30" height="30" as="geometry" />
        </mxCell>
        <mxCell id="nO--Adpjq3xge81_yDRH-24" value="" style="group" vertex="1" connectable="0" parent="OsrhwY9meYCc-dFwqXJU-1">
          <mxGeometry x="541" y="620" width="90" height="90" as="geometry" />
        </mxCell>
        <mxCell id="nO--Adpjq3xge81_yDRH-25" value="Scythe of Vyse" style="whiteSpace=wrap;html=1;aspect=fixed;" vertex="1" parent="nO--Adpjq3xge81_yDRH-24">
          <mxGeometry width="90" height="90" as="geometry" />
        </mxCell>
        <mxCell id="nO--Adpjq3xge81_yDRH-26" value="9" style="whiteSpace=wrap;html=1;aspect=fixed;" vertex="1" parent="nO--Adpjq3xge81_yDRH-24">
          <mxGeometry x="30" width="30" height="30" as="geometry" />
        </mxCell>
        <mxCell id="nO--Adpjq3xge81_yDRH-27" value="" style="group" vertex="1" connectable="0" parent="OsrhwY9meYCc-dFwqXJU-1">
          <mxGeometry x="191" y="830" width="90" height="90" as="geometry" />
        </mxCell>
        <mxCell id="nO--Adpjq3xge81_yDRH-28" value="Pipe of Insight" style="whiteSpace=wrap;html=1;aspect=fixed;" vertex="1" parent="nO--Adpjq3xge81_yDRH-27">
          <mxGeometry width="90" height="90" as="geometry" />
        </mxCell>
        <mxCell id="nO--Adpjq3xge81_yDRH-29" value="10" style="whiteSpace=wrap;html=1;aspect=fixed;" vertex="1" parent="nO--Adpjq3xge81_yDRH-27">
          <mxGeometry x="30" width="30" height="30" as="geometry" />
        </mxCell>
        <mxCell id="nO--Adpjq3xge81_yDRH-30" value="" style="group" vertex="1" connectable="0" parent="OsrhwY9meYCc-dFwqXJU-1">
          <mxGeometry x="81" y="830" width="90" height="90" as="geometry" />
        </mxCell>
        <mxCell id="nO--Adpjq3xge81_yDRH-31" value="Blink Dagger" style="whiteSpace=wrap;html=1;aspect=fixed;" vertex="1" parent="nO--Adpjq3xge81_yDRH-30">
          <mxGeometry width="90" height="90" as="geometry" />
        </mxCell>
        <mxCell id="nO--Adpjq3xge81_yDRH-32" value="2" style="whiteSpace=wrap;html=1;aspect=fixed;" vertex="1" parent="nO--Adpjq3xge81_yDRH-30">
          <mxGeometry x="30" width="30" height="30" as="geometry" />
        </mxCell>
        <mxCell id="nO--Adpjq3xge81_yDRH-33" value="" style="group" vertex="1" connectable="0" parent="OsrhwY9meYCc-dFwqXJU-1">
          <mxGeometry x="421" y="830" width="90" height="90" as="geometry" />
        </mxCell>
        <mxCell id="nO--Adpjq3xge81_yDRH-34" value="Eul&#39;&#39;s Scepter" style="whiteSpace=wrap;html=1;aspect=fixed;" vertex="1" parent="nO--Adpjq3xge81_yDRH-33">
          <mxGeometry width="90" height="90" as="geometry" />
        </mxCell>
        <mxCell id="nO--Adpjq3xge81_yDRH-35" value="12" style="whiteSpace=wrap;html=1;aspect=fixed;" vertex="1" parent="nO--Adpjq3xge81_yDRH-33">
          <mxGeometry x="30" width="30" height="30" as="geometry" />
        </mxCell>
        <mxCell id="nO--Adpjq3xge81_yDRH-37" value="" style="group" vertex="1" connectable="0" parent="OsrhwY9meYCc-dFwqXJU-1">
          <mxGeometry x="541" y="830" width="90" height="90" as="geometry" />
        </mxCell>
        <mxCell id="nO--Adpjq3xge81_yDRH-38" value="Divine Rapier" style="whiteSpace=wrap;html=1;aspect=fixed;" vertex="1" parent="nO--Adpjq3xge81_yDRH-37">
          <mxGeometry width="90" height="90" as="geometry" />
        </mxCell>
        <mxCell id="nO--Adpjq3xge81_yDRH-39" value="7" style="whiteSpace=wrap;html=1;aspect=fixed;" vertex="1" parent="nO--Adpjq3xge81_yDRH-37">
          <mxGeometry x="30.000000000000004" width="30.000000000000004" height="30.000000000000004" as="geometry" />
        </mxCell>
        <mxCell id="nO--Adpjq3xge81_yDRH-40" value="" style="group" vertex="1" connectable="0" parent="OsrhwY9meYCc-dFwqXJU-1">
          <mxGeometry x="651" y="830" width="90" height="90" as="geometry" />
        </mxCell>
        <mxCell id="nO--Adpjq3xge81_yDRH-41" value="Heart of Tarrasque" style="whiteSpace=wrap;html=1;aspect=fixed;" vertex="1" parent="nO--Adpjq3xge81_yDRH-40">
          <mxGeometry width="90" height="90" as="geometry" />
        </mxCell>
        <mxCell id="nO--Adpjq3xge81_yDRH-42" value="8" style="whiteSpace=wrap;html=1;aspect=fixed;" vertex="1" parent="nO--Adpjq3xge81_yDRH-40">
          <mxGeometry x="30" width="30" height="30" as="geometry" />
        </mxCell>
        <mxCell id="OsrhwY9meYCc-dFwqXJU-26" value="" style="group" vertex="1" connectable="0" parent="OsrhwY9meYCc-dFwqXJU-1">
          <mxGeometry x="601" y="320" width="80" height="80" as="geometry" />
        </mxCell>
        <mxCell id="OsrhwY9meYCc-dFwqXJU-27" value="Dendi" style="ellipse;whiteSpace=wrap;html=1;aspect=fixed;" vertex="1" parent="OsrhwY9meYCc-dFwqXJU-26">
          <mxGeometry width="80" height="80" as="geometry" />
        </mxCell>
        <mxCell id="OsrhwY9meYCc-dFwqXJU-28" value="6" style="ellipse;whiteSpace=wrap;html=1;aspect=fixed;" vertex="1" parent="OsrhwY9meYCc-dFwqXJU-26">
          <mxGeometry x="25" width="30" height="30" as="geometry" />
        </mxCell>
        <mxCell id="nO--Adpjq3xge81_yDRH-44" style="edgeStyle=none;curved=1;rounded=0;orthogonalLoop=1;jettySize=auto;html=1;exitX=0;exitY=0.5;exitDx=0;exitDy=0;entryX=0.25;entryY=0;entryDx=0;entryDy=0;fontSize=12;startSize=8;endSize=8;" edge="1" parent="OsrhwY9meYCc-dFwqXJU-1" source="OsrhwY9meYCc-dFwqXJU-3" target="OsrhwY9meYCc-dFwqXJU-78">
          <mxGeometry relative="1" as="geometry">
            <Array as="points">
              <mxPoint x="100" y="150" />
            </Array>
          </mxGeometry>
        </mxCell>
        <mxCell id="nO--Adpjq3xge81_yDRH-45" style="edgeStyle=none;curved=1;rounded=0;orthogonalLoop=1;jettySize=auto;html=1;exitX=0;exitY=0.5;exitDx=0;exitDy=0;entryX=0.25;entryY=0;entryDx=0;entryDy=0;fontSize=12;startSize=8;endSize=8;" edge="1" parent="OsrhwY9meYCc-dFwqXJU-1" source="OsrhwY9meYCc-dFwqXJU-6" target="OsrhwY9meYCc-dFwqXJU-75">
          <mxGeometry relative="1" as="geometry">
            <Array as="points">
              <mxPoint x="330" y="150" />
            </Array>
          </mxGeometry>
        </mxCell>
        <mxCell id="nO--Adpjq3xge81_yDRH-46" style="edgeStyle=none;curved=1;rounded=0;orthogonalLoop=1;jettySize=auto;html=1;exitX=1;exitY=0.5;exitDx=0;exitDy=0;entryX=0.75;entryY=0;entryDx=0;entryDy=0;fontSize=12;startSize=8;endSize=8;" edge="1" parent="OsrhwY9meYCc-dFwqXJU-1" source="OsrhwY9meYCc-dFwqXJU-6" target="OsrhwY9meYCc-dFwqXJU-90">
          <mxGeometry relative="1" as="geometry">
            <Array as="points">
              <mxPoint x="490" y="150" />
            </Array>
          </mxGeometry>
        </mxCell>
        <mxCell id="nO--Adpjq3xge81_yDRH-47" style="edgeStyle=none;curved=1;rounded=0;orthogonalLoop=1;jettySize=auto;html=1;exitX=1;exitY=0.5;exitDx=0;exitDy=0;entryX=0.835;entryY=-0.002;entryDx=0;entryDy=0;entryPerimeter=0;fontSize=12;startSize=8;endSize=8;" edge="1" parent="OsrhwY9meYCc-dFwqXJU-1" source="OsrhwY9meYCc-dFwqXJU-12" target="OsrhwY9meYCc-dFwqXJU-108">
          <mxGeometry relative="1" as="geometry">
            <Array as="points">
              <mxPoint x="726" y="160" />
            </Array>
          </mxGeometry>
        </mxCell>
        <mxCell id="nO--Adpjq3xge81_yDRH-48" style="edgeStyle=none;curved=1;rounded=0;orthogonalLoop=1;jettySize=auto;html=1;exitX=0;exitY=0.5;exitDx=0;exitDy=0;entryX=0.25;entryY=0;entryDx=0;entryDy=0;fontSize=12;startSize=8;endSize=8;" edge="1" parent="OsrhwY9meYCc-dFwqXJU-1" source="OsrhwY9meYCc-dFwqXJU-12" target="nO--Adpjq3xge81_yDRH-4">
          <mxGeometry relative="1" as="geometry">
            <Array as="points">
              <mxPoint x="560" y="150" />
            </Array>
          </mxGeometry>
        </mxCell>
        <mxCell id="nO--Adpjq3xge81_yDRH-49" style="edgeStyle=none;curved=1;rounded=0;orthogonalLoop=1;jettySize=auto;html=1;exitX=1;exitY=0.5;exitDx=0;exitDy=0;entryX=0.75;entryY=0;entryDx=0;entryDy=0;fontSize=12;startSize=8;endSize=8;" edge="1" parent="OsrhwY9meYCc-dFwqXJU-1" source="OsrhwY9meYCc-dFwqXJU-15" target="OsrhwY9meYCc-dFwqXJU-96">
          <mxGeometry relative="1" as="geometry">
            <Array as="points">
              <mxPoint x="260" y="360" />
            </Array>
          </mxGeometry>
        </mxCell>
        <mxCell id="nO--Adpjq3xge81_yDRH-50" style="edgeStyle=none;curved=1;rounded=0;orthogonalLoop=1;jettySize=auto;html=1;exitX=0;exitY=0.5;exitDx=0;exitDy=0;entryX=0.25;entryY=0;entryDx=0;entryDy=0;fontSize=12;startSize=8;endSize=8;" edge="1" parent="OsrhwY9meYCc-dFwqXJU-1" source="OsrhwY9meYCc-dFwqXJU-15" target="OsrhwY9meYCc-dFwqXJU-93">
          <mxGeometry relative="1" as="geometry">
            <Array as="points">
              <mxPoint x="100" y="360" />
            </Array>
          </mxGeometry>
        </mxCell>
        <mxCell id="nO--Adpjq3xge81_yDRH-51" style="edgeStyle=none;curved=1;rounded=0;orthogonalLoop=1;jettySize=auto;html=1;exitX=0;exitY=0.5;exitDx=0;exitDy=0;entryX=0.25;entryY=0;entryDx=0;entryDy=0;fontSize=12;startSize=8;endSize=8;" edge="1" parent="OsrhwY9meYCc-dFwqXJU-1" source="OsrhwY9meYCc-dFwqXJU-24" target="OsrhwY9meYCc-dFwqXJU-102">
          <mxGeometry relative="1" as="geometry">
            <Array as="points">
              <mxPoint x="330" y="360" />
            </Array>
          </mxGeometry>
        </mxCell>
        <mxCell id="nO--Adpjq3xge81_yDRH-52" style="edgeStyle=none;curved=1;rounded=0;orthogonalLoop=1;jettySize=auto;html=1;exitX=1;exitY=0.5;exitDx=0;exitDy=0;entryX=0.75;entryY=0;entryDx=0;entryDy=0;fontSize=12;startSize=8;endSize=8;" edge="1" parent="OsrhwY9meYCc-dFwqXJU-1" source="OsrhwY9meYCc-dFwqXJU-24" target="OsrhwY9meYCc-dFwqXJU-81">
          <mxGeometry relative="1" as="geometry">
            <Array as="points">
              <mxPoint x="490" y="360" />
            </Array>
          </mxGeometry>
        </mxCell>
        <mxCell id="nO--Adpjq3xge81_yDRH-53" style="edgeStyle=none;curved=1;rounded=0;orthogonalLoop=1;jettySize=auto;html=1;exitX=0;exitY=0.5;exitDx=0;exitDy=0;entryX=0.25;entryY=0;entryDx=0;entryDy=0;fontSize=12;startSize=8;endSize=8;" edge="1" parent="OsrhwY9meYCc-dFwqXJU-1" source="OsrhwY9meYCc-dFwqXJU-27" target="nO--Adpjq3xge81_yDRH-7">
          <mxGeometry relative="1" as="geometry">
            <Array as="points">
              <mxPoint x="560" y="360" />
            </Array>
          </mxGeometry>
        </mxCell>
        <mxCell id="nO--Adpjq3xge81_yDRH-54" style="edgeStyle=none;curved=1;rounded=0;orthogonalLoop=1;jettySize=auto;html=1;exitX=1;exitY=0.5;exitDx=0;exitDy=0;entryX=0.75;entryY=0;entryDx=0;entryDy=0;fontSize=12;startSize=8;endSize=8;" edge="1" parent="OsrhwY9meYCc-dFwqXJU-1" source="OsrhwY9meYCc-dFwqXJU-27" target="nO--Adpjq3xge81_yDRH-10">
          <mxGeometry relative="1" as="geometry">
            <Array as="points">
              <mxPoint x="720" y="360" />
            </Array>
          </mxGeometry>
        </mxCell>
        <mxCell id="nO--Adpjq3xge81_yDRH-55" style="edgeStyle=none;curved=1;rounded=0;orthogonalLoop=1;jettySize=auto;html=1;exitX=0;exitY=0.5;exitDx=0;exitDy=0;entryX=0.25;entryY=0;entryDx=0;entryDy=0;fontSize=12;startSize=8;endSize=8;" edge="1" parent="OsrhwY9meYCc-dFwqXJU-1" source="OsrhwY9meYCc-dFwqXJU-21" target="nO--Adpjq3xge81_yDRH-25">
          <mxGeometry relative="1" as="geometry">
            <Array as="points">
              <mxPoint x="560" y="570" />
            </Array>
          </mxGeometry>
        </mxCell>
        <mxCell id="nO--Adpjq3xge81_yDRH-56" style="edgeStyle=none;curved=1;rounded=0;orthogonalLoop=1;jettySize=auto;html=1;exitX=1;exitY=0.5;exitDx=0;exitDy=0;entryX=0.75;entryY=0;entryDx=0;entryDy=0;fontSize=12;startSize=8;endSize=8;" edge="1" parent="OsrhwY9meYCc-dFwqXJU-1" source="OsrhwY9meYCc-dFwqXJU-21" target="OsrhwY9meYCc-dFwqXJU-84">
          <mxGeometry relative="1" as="geometry">
            <Array as="points">
              <mxPoint x="720" y="570" />
            </Array>
          </mxGeometry>
        </mxCell>
        <mxCell id="nO--Adpjq3xge81_yDRH-58" style="edgeStyle=none;curved=1;rounded=0;orthogonalLoop=1;jettySize=auto;html=1;exitX=0;exitY=0.5;exitDx=0;exitDy=0;entryX=0.25;entryY=0;entryDx=0;entryDy=0;fontSize=12;startSize=8;endSize=8;" edge="1" parent="OsrhwY9meYCc-dFwqXJU-1" source="OsrhwY9meYCc-dFwqXJU-36" target="nO--Adpjq3xge81_yDRH-38">
          <mxGeometry relative="1" as="geometry">
            <Array as="points">
              <mxPoint x="560" y="780" />
            </Array>
          </mxGeometry>
        </mxCell>
        <mxCell id="nO--Adpjq3xge81_yDRH-59" style="edgeStyle=none;curved=1;rounded=0;orthogonalLoop=1;jettySize=auto;html=1;exitX=1;exitY=0.5;exitDx=0;exitDy=0;entryX=0.75;entryY=0;entryDx=0;entryDy=0;fontSize=12;startSize=8;endSize=8;" edge="1" parent="OsrhwY9meYCc-dFwqXJU-1" source="OsrhwY9meYCc-dFwqXJU-36" target="nO--Adpjq3xge81_yDRH-41">
          <mxGeometry relative="1" as="geometry">
            <Array as="points">
              <mxPoint x="720" y="780" />
            </Array>
          </mxGeometry>
        </mxCell>
        <mxCell id="nO--Adpjq3xge81_yDRH-60" style="edgeStyle=none;curved=1;rounded=0;orthogonalLoop=1;jettySize=auto;html=1;exitX=0;exitY=0.5;exitDx=0;exitDy=0;entryX=0.25;entryY=0;entryDx=0;entryDy=0;fontSize=12;startSize=8;endSize=8;" edge="1" parent="OsrhwY9meYCc-dFwqXJU-1" source="OsrhwY9meYCc-dFwqXJU-33" target="OsrhwY9meYCc-dFwqXJU-105">
          <mxGeometry relative="1" as="geometry">
            <Array as="points">
              <mxPoint x="334" y="780" />
            </Array>
          </mxGeometry>
        </mxCell>
        <mxCell id="nO--Adpjq3xge81_yDRH-61" style="edgeStyle=none;curved=1;rounded=0;orthogonalLoop=1;jettySize=auto;html=1;exitX=1;exitY=0.5;exitDx=0;exitDy=0;entryX=0.75;entryY=0;entryDx=0;entryDy=0;fontSize=12;startSize=8;endSize=8;" edge="1" parent="OsrhwY9meYCc-dFwqXJU-1" source="OsrhwY9meYCc-dFwqXJU-33" target="nO--Adpjq3xge81_yDRH-34">
          <mxGeometry relative="1" as="geometry">
            <Array as="points">
              <mxPoint x="489" y="780" />
            </Array>
          </mxGeometry>
        </mxCell>
        <mxCell id="nO--Adpjq3xge81_yDRH-62" style="edgeStyle=none;curved=1;rounded=0;orthogonalLoop=1;jettySize=auto;html=1;exitX=1;exitY=0.5;exitDx=0;exitDy=0;entryX=0.75;entryY=0;entryDx=0;entryDy=0;fontSize=12;startSize=8;endSize=8;" edge="1" parent="OsrhwY9meYCc-dFwqXJU-1" source="OsrhwY9meYCc-dFwqXJU-18" target="nO--Adpjq3xge81_yDRH-22">
          <mxGeometry relative="1" as="geometry">
            <Array as="points">
              <mxPoint x="490" y="570" />
            </Array>
          </mxGeometry>
        </mxCell>
        <mxCell id="nO--Adpjq3xge81_yDRH-64" style="edgeStyle=none;curved=1;rounded=0;orthogonalLoop=1;jettySize=auto;html=1;exitX=0;exitY=0.5;exitDx=0;exitDy=0;entryX=0.25;entryY=0;entryDx=0;entryDy=0;fontSize=12;startSize=8;endSize=8;" edge="1" parent="OsrhwY9meYCc-dFwqXJU-1" source="OsrhwY9meYCc-dFwqXJU-18" target="nO--Adpjq3xge81_yDRH-19">
          <mxGeometry relative="1" as="geometry">
            <Array as="points">
              <mxPoint x="334" y="570" />
            </Array>
          </mxGeometry>
        </mxCell>
        <mxCell id="nO--Adpjq3xge81_yDRH-66" style="edgeStyle=none;curved=1;rounded=0;orthogonalLoop=1;jettySize=auto;html=1;exitX=1;exitY=0.5;exitDx=0;exitDy=0;entryX=0.75;entryY=0;entryDx=0;entryDy=0;fontSize=12;startSize=8;endSize=8;" edge="1" parent="OsrhwY9meYCc-dFwqXJU-1" source="OsrhwY9meYCc-dFwqXJU-9" target="nO--Adpjq3xge81_yDRH-16">
          <mxGeometry relative="1" as="geometry">
            <Array as="points">
              <mxPoint x="260" y="570" />
            </Array>
          </mxGeometry>
        </mxCell>
        <mxCell id="nO--Adpjq3xge81_yDRH-67" style="edgeStyle=none;curved=1;rounded=0;orthogonalLoop=1;jettySize=auto;html=1;exitX=0;exitY=0.5;exitDx=0;exitDy=0;entryX=0.25;entryY=0;entryDx=0;entryDy=0;fontSize=12;startSize=8;endSize=8;" edge="1" parent="OsrhwY9meYCc-dFwqXJU-1" source="OsrhwY9meYCc-dFwqXJU-9" target="nO--Adpjq3xge81_yDRH-13">
          <mxGeometry relative="1" as="geometry">
            <Array as="points">
              <mxPoint x="100" y="570" />
            </Array>
          </mxGeometry>
        </mxCell>
        <mxCell id="nO--Adpjq3xge81_yDRH-68" style="edgeStyle=none;curved=1;rounded=0;orthogonalLoop=1;jettySize=auto;html=1;exitX=0;exitY=0.5;exitDx=0;exitDy=0;entryX=0.25;entryY=0;entryDx=0;entryDy=0;fontSize=12;startSize=8;endSize=8;" edge="1" parent="OsrhwY9meYCc-dFwqXJU-1" source="OsrhwY9meYCc-dFwqXJU-30" target="nO--Adpjq3xge81_yDRH-31">
          <mxGeometry relative="1" as="geometry">
            <Array as="points">
              <mxPoint x="100" y="780" />
            </Array>
          </mxGeometry>
        </mxCell>
        <mxCell id="nO--Adpjq3xge81_yDRH-69" style="edgeStyle=none;curved=1;rounded=0;orthogonalLoop=1;jettySize=auto;html=1;exitX=1;exitY=0.5;exitDx=0;exitDy=0;entryX=0.75;entryY=0;entryDx=0;entryDy=0;fontSize=12;startSize=8;endSize=8;" edge="1" parent="OsrhwY9meYCc-dFwqXJU-1" source="OsrhwY9meYCc-dFwqXJU-30" target="nO--Adpjq3xge81_yDRH-28">
          <mxGeometry relative="1" as="geometry">
            <Array as="points">
              <mxPoint x="260" y="780" />
            </Array>
          </mxGeometry>
        </mxCell>
      </root>
    </mxGraphModel>
  </diagram>
</mxfile>
